<svg width="27" height="33" viewBox="0 0 27 33" fill="none" xmlns="http://www.w3.org/2000/svg">
<g clip-path="url(#clip0_155_258)">
<path d="M10.9828 32.7271C11.3919 32.2526 11.8119 31.8138 12.1772 31.3332C13.1785 30.0161 13.7302 28.5151 13.9246 26.881C14.1947 24.6599 13.6093 22.636 12.5006 20.7292C11.1043 18.3284 9.29475 16.2729 7.23403 14.4267C6.85119 14.0834 6.46498 13.7422 6.06391 13.4205C5.69592 13.1263 5.27122 13.0059 4.78778 12.9958C3.2814 12.9648 1.77502 12.8995 0.268642 12.8457C0.153182 12.8416 0.0093642 12.8672 0.0140906 12.6734C0.018817 12.4795 0.163986 12.5186 0.27742 12.5186C2.00999 12.5482 3.74256 12.5765 5.47648 12.6141C5.79653 12.6209 6.06458 12.5556 6.26174 12.2776C6.40218 12.0818 6.56221 11.8994 6.73438 11.6887C6.43324 11.4572 6.17802 11.1859 5.86405 11.0426C5.58992 10.9174 5.25029 10.9079 4.93767 10.8965C3.40136 10.8615 1.8637 10.8368 0.324684 10.8225C0.0829613 10.8225 -0.0243959 10.7639 0.00463778 10.5122C0.012027 10.3873 0.012027 10.2622 0.00463778 10.1373L5.54603 10.2584C5.80531 10.2638 6.00922 10.2134 6.12198 9.92663C6.70873 8.43446 7.31101 6.94835 7.90654 5.45954C7.92679 5.40906 7.94165 5.35656 7.9646 5.28791C7.90316 5.246 7.83911 5.20801 7.77285 5.17417C6.40151 4.56841 5.00451 4.03804 3.49611 3.88593C2.37122 3.77219 1.25579 3.83613 0.202472 4.32342C0.153858 4.3463 0.101192 4.35909 0.00733859 4.39073V4.06497C0.00733859 2.85974 0.00733859 1.65452 0.00733859 0.449299C0.00733859 -0.000303824 0.00733857 -0.000303823 0.450947 -0.000303823C4.58454 -0.000303823 8.71813 -0.000303823 12.8517 -0.000303823C13.8922 -0.000303823 14.9334 -0.014438 15.9718 0.0299838C17.6686 0.102674 19.2851 0.501124 20.7556 1.3761C22.5659 2.45299 23.6172 4.04679 23.9136 6.12587C24.2154 8.246 23.9811 10.2914 23.0068 12.2265C22.5851 13.0637 21.9959 13.8061 21.2756 14.4078C21.177 14.4906 21.0824 14.5775 20.9562 14.6885C21.0353 14.7375 21.1177 14.7811 21.2026 14.8191C23.8487 15.7425 25.2842 17.685 25.902 20.3308C26.5097 22.9247 26.3112 25.45 25.2079 27.8744C24.3396 29.7818 22.7806 30.9651 20.8671 31.7209C19.439 32.2849 17.9549 32.6309 16.4202 32.6767C14.641 32.7298 12.8605 32.7211 11.08 32.7386C11.0473 32.7374 11.0148 32.7336 10.9828 32.7271Z" fill="white"/>
</g>
<defs>
<clipPath id="clip0_155_258">
<rect width="26.2397" height="32.7436" fill="white"/>
</clipPath>
</defs>
</svg>
