<svg width="43" height="38" viewBox="0 0 43 38" fill="none" xmlns="http://www.w3.org/2000/svg">
<path d="M27.8714 0.0419378C24.8047 0.308605 21.7214 1.25861 19.8963 2.49194C19.213 2.95861 18.488 3.72527 18.2047 4.27527C17.7297 5.21694 17.7213 7.11694 18.1963 8.05028C18.663 8.97528 19.938 10.0419 21.363 10.6919C22.7797 11.3503 24.8964 11.9253 26.8297 12.1919C28.2214 12.3836 30.963 12.4419 32.3714 12.3253C37.5464 11.8669 41.3214 10.2086 42.4047 7.90028C42.588 7.50028 42.6214 7.30861 42.6464 6.38361C42.688 5.15861 42.563 4.61694 42.113 3.93361C40.8214 1.99194 37.2714 0.508605 32.838 0.0669384C32.0547 -0.00806141 28.663 -0.0247288 27.8714 0.0419378Z" fill="#FE740E"/>
<path d="M10.2881 9.5336C8.04642 9.77527 6.57976 10.0669 5.06309 10.5669C2.65475 11.3669 0.92142 12.5753 0.296419 13.8919C0.0464193 14.4336 0.0380859 14.4669 0.0380859 15.6919C0.0380859 16.9253 0.0380859 16.9503 0.304753 17.5086C1.24642 19.4919 4.43809 21.0586 8.87142 21.7086C9.97142 21.8669 13.9714 21.9169 15.1881 21.7919L15.8298 21.7169V15.6919V9.66694L15.4381 9.61694C14.9214 9.5586 10.7214 9.49194 10.2881 9.5336Z" fill="#FE740E"/>
<path d="M17.9796 11.0837C17.8296 11.6087 17.8546 13.517 18.0213 13.967C18.7963 16.0337 22.0046 17.7254 26.4463 18.417C27.8629 18.6337 31.2129 18.717 32.7296 18.567C37.5546 18.1087 41.3296 16.417 42.3463 14.267C42.6213 13.7004 42.6213 13.6837 42.6213 12.442C42.6213 11.6254 42.5796 11.1087 42.5129 10.9587L42.4129 10.717L42.0713 11.2254C40.9879 12.8504 38.0629 14.242 34.5379 14.8087C32.1546 15.192 29.0629 15.242 26.8296 14.942C24.8546 14.667 22.8046 14.1087 21.3796 13.4587C20.0879 12.8587 18.8046 11.8504 18.3546 11.0837C18.2379 10.892 18.1296 10.7337 18.1129 10.7337C18.0963 10.7337 18.0379 10.892 17.9796 11.0837Z" fill="#FE740E"/>
<path d="M17.9878 17.3754C17.9128 17.6337 17.8711 18.1504 17.8795 18.817C17.8878 20.0587 18.0295 20.517 18.6378 21.2754C20.8295 23.9837 27.3211 25.517 33.4545 24.767C37.9378 24.217 41.3628 22.592 42.3795 20.5087C42.5961 20.067 42.6211 19.9254 42.6545 18.9837C42.6795 17.9837 42.5711 17.067 42.4128 17.067C42.3795 17.067 42.2545 17.2254 42.1378 17.4254C41.8795 17.8587 41.2045 18.5004 40.5045 18.9754C39.0378 19.9754 36.6211 20.7837 33.8961 21.2004C32.5378 21.4087 28.9128 21.4504 27.4128 21.2837C23.0211 20.7837 19.7045 19.3587 18.3961 17.417L18.1045 16.9754L17.9878 17.3754Z" fill="#FE740E"/>
<path d="M0.0792904 20.7586C0.020957 21.0169 -0.0123764 21.6253 0.00429031 22.2336C0.0376237 23.1753 0.0626237 23.3253 0.270957 23.7586C1.47929 26.2169 5.79596 27.9169 11.496 28.1919C12.5126 28.2419 14.871 28.1419 15.5626 28.0169L15.8293 27.9669V26.2253V24.4836L15.146 24.5419C14.7626 24.5836 13.4043 24.6086 12.121 24.6003C10.1626 24.5919 9.59596 24.5669 8.60429 24.4169C6.62929 24.1086 4.51263 23.4919 3.22929 22.8503C2.03762 22.2586 0.795957 21.2336 0.445957 20.5586C0.37929 20.4253 0.287624 20.3169 0.245957 20.3169C0.20429 20.3169 0.12929 20.5169 0.0792904 20.7586Z" fill="#FE740E"/>
<path d="M18.0046 23.9086C17.8546 24.3336 17.8046 25.5669 17.9046 26.2169C18.0296 27.0002 18.3129 27.5586 18.9046 28.1752C20.3629 29.7086 23.2379 30.8586 26.9129 31.3752C28.5296 31.6002 32.2046 31.5836 33.8712 31.3336C38.3212 30.6836 41.4296 29.1252 42.4046 27.0669C42.6046 26.6336 42.6212 26.5336 42.6212 25.3586C42.6212 24.5336 42.5796 24.0252 42.5129 23.8669L42.4046 23.6252L42.1712 23.9919C40.1629 27.0919 32.8546 28.7919 26.1629 27.7252C22.4796 27.1419 19.4712 25.7169 18.4046 24.0586C18.2629 23.8336 18.1379 23.6502 18.1212 23.6502C18.1046 23.6502 18.0546 23.7669 18.0046 23.9086Z" fill="#FE740E"/>
<path d="M0.146419 26.7421C0.0714193 26.8837 0.0380859 27.3087 0.0380859 28.2337C0.0380859 29.4004 0.0547526 29.5671 0.229753 29.9337C1.20475 32.0504 4.43809 33.6421 9.07976 34.2837C10.3881 34.4671 14.1048 34.4921 15.3714 34.3254C15.8298 34.2671 16.2131 34.2087 16.2298 34.1921C16.2464 34.1754 16.1798 33.9087 16.0714 33.5921C15.9381 33.1671 15.8798 32.7421 15.8464 31.8754C15.8131 30.7504 15.8048 30.7254 15.6298 30.7671C15.5381 30.7921 14.7548 30.8587 13.8964 30.9087C11.4048 31.0671 8.55476 30.8087 6.32976 30.2337C3.44642 29.4754 1.42975 28.3171 0.471419 26.8671L0.263086 26.5504L0.146419 26.7421Z" fill="#FE740E"/>
<path d="M17.9796 30.2501C17.8296 30.7751 17.8546 32.6834 18.0213 33.1334C18.8546 35.3501 22.4879 37.1334 27.3296 37.6834C28.6296 37.8334 31.5463 37.8584 32.8379 37.7334C37.2713 37.2918 40.8213 35.8084 42.1129 33.8668C42.5713 33.1751 42.6879 32.6418 42.6463 31.4168C42.6213 30.8334 42.5629 30.2501 42.5129 30.1251L42.4129 29.8834L42.0713 30.3918C40.8963 32.1501 37.7379 33.5501 33.6629 34.1251C32.1963 34.3334 28.3796 34.3334 26.9213 34.1251C24.0796 33.7251 21.5629 32.9084 20.0713 31.8918C19.3713 31.4251 18.6129 30.7001 18.3546 30.2501C18.2379 30.0584 18.1296 29.9001 18.1129 29.9001C18.0963 29.9001 18.0379 30.0584 17.9796 30.2501Z" fill="#FE740E"/>
</svg>
