<svg width="43" height="37" viewBox="0 0 43 37" fill="none" xmlns="http://www.w3.org/2000/svg">
<path d="M14.0121 0.12612C13.7842 0.20751 13.4912 0.36215 13.3529 0.467957C13.2145 0.581902 10.4798 3.17823 7.27306 6.24662C0.713049 12.5136 0.997913 12.1962 0.997913 13.3357C0.997913 14.3612 1.00605 14.3693 5.23018 18.7888L8.9741 22.7036L9.0148 15.6715C9.05549 8.68017 9.05549 8.64762 9.23455 8.11858C9.75544 6.61288 10.9275 5.44086 12.4332 4.92811C12.9378 4.74905 13.1168 4.74091 16.641 4.70022L20.328 4.65952L18.3258 2.55967C16.0876 0.215649 15.8841 0.0610085 14.9562 0.00403595C14.5819 -0.0122433 14.3051 0.0203133 14.0121 0.12612Z" fill="#FE740E"/>
<path d="M24.2345 1.11061C23.5996 1.30595 23.0299 1.76173 22.7532 2.2989C22.6555 2.47796 22.4602 3.08838 22.3137 3.65811L22.0532 4.6999H26.1471C29.948 4.6999 30.2736 4.70804 30.8596 4.86268C31.7793 5.09871 32.406 5.45682 33.1059 6.16491C33.814 6.86486 34.1721 7.49156 34.4082 8.41127C34.5628 9.02169 34.571 9.35539 34.571 21.4418C34.571 33.1944 34.5791 33.8374 34.7175 33.8374C35.1163 33.8374 35.9627 33.1375 36.2639 32.5677C36.3127 32.4782 37.7696 26.8216 39.495 19.993C42.9704 6.31955 42.7994 7.14159 42.3599 6.27886C42.1483 5.85563 41.6681 5.36729 41.2693 5.16382C41.0577 5.04987 39.609 4.67548 29.2725 2.06287C25.3088 1.05364 24.7635 0.955975 24.2345 1.11061Z" fill="#FE740E"/>
<path d="M13.1086 7.28823C12.2947 7.57309 11.7168 8.22421 11.5378 9.04624C11.4727 9.33925 11.4564 13.1808 11.4727 22.2802L11.4971 35.0991L11.668 35.4735C11.9203 36.0106 12.3028 36.4013 12.8237 36.6618L13.2877 36.8896H21.7929H30.2981L30.762 36.6618C31.2829 36.4013 31.6654 36.0106 31.9178 35.4735L32.0887 35.0991V22.036V8.97299L31.9178 8.5986C31.6654 8.06143 31.2829 7.67076 30.762 7.41031L30.2981 7.18242L21.915 7.16614C14.0364 7.14986 13.5074 7.158 13.1086 7.28823ZM17.8048 11.8623C18.171 12.0495 18.4559 12.5134 18.4559 12.9204C18.4559 13.539 17.8536 14.1412 17.2269 14.1412C16.8525 14.1412 16.3479 13.8238 16.1689 13.4738C15.8677 12.8878 16.0549 12.2449 16.6328 11.8949C17.0234 11.6589 17.3816 11.6507 17.8048 11.8623ZM20.9383 17.7468C21.2069 17.877 21.4999 18.0479 21.5975 18.1375C21.7685 18.3002 21.7685 18.3002 22.1835 18.0154C22.8265 17.584 23.3149 17.4538 24.145 17.4945C25.0322 17.5352 25.6019 17.7875 26.2612 18.4142C27.775 19.8548 27.8971 22.4104 26.5298 23.9243C26.0496 24.4533 22.5905 27.5298 22.3056 27.6845C21.9719 27.8473 21.6138 27.8473 21.2801 27.6845C21.0034 27.538 17.4385 24.3638 17.0072 23.8754C16.6572 23.4685 16.3642 22.8825 16.2177 22.2639C15.9003 20.9047 16.2584 19.5374 17.1781 18.5526C17.9513 17.7468 18.6024 17.4701 19.7174 17.5026C20.3197 17.5189 20.5313 17.5596 20.9383 17.7468ZM26.9204 30.0936C27.2867 30.2808 27.5715 30.7447 27.5715 31.1517C27.5715 31.7702 26.9693 32.3725 26.3426 32.3725C25.9682 32.3725 25.4635 32.0551 25.2845 31.7051C24.9834 31.1191 25.1705 30.4761 25.7484 30.1262C26.1391 29.8901 26.4972 29.882 26.9204 30.0936Z" fill="#FE740E"/>
</svg>
