<svg width="378" height="164" viewBox="0 0 378 164" fill="none" xmlns="http://www.w3.org/2000/svg">
<g filter="url(#filter0_d_11_26)">
<rect x="44" y="40" width="290" height="76" rx="7" fill="white"/>
</g>
<path d="M240.5 22L211 43H240.5V22Z" fill="white"/>
<path d="M102 93.8333C110.745 93.8333 117.833 86.7445 117.833 78C117.833 69.2555 110.745 62.1667 102 62.1667C93.2555 62.1667 86.1667 69.2555 86.1667 78C86.1667 86.7445 93.2555 93.8333 102 93.8333Z" fill="#10C600"/>
<path d="M100.805 83.2962C100.349 83.2962 99.8934 83.1221 99.5458 82.7745L94.7301 77.958C94.0343 77.2629 94.0343 76.1348 94.7301 75.4389C95.4252 74.7431 96.5541 74.7431 97.2492 75.4389L102.065 80.2554C102.761 80.9505 102.761 82.0787 102.065 82.7745C101.717 83.1221 101.261 83.2962 100.805 83.2962Z" fill="white"/>
<path d="M100.805 83.2962C100.349 83.2962 99.8934 83.1221 99.5458 82.7745C98.85 82.0795 98.85 80.9513 99.5458 80.2555L107.098 72.7037C107.793 72.0079 108.922 72.0079 109.617 72.7037C110.312 73.3988 110.312 74.527 109.617 75.2228L102.065 82.7745C101.717 83.1221 101.261 83.2962 100.805 83.2962Z" fill="white"/>
<path d="M133.797 64.6834L130.363 71.2445V75H128.682V71.2445L125.234 64.6834H127.163L129.53 69.4618L131.897 64.6834H133.797ZM138.432 66.8461C139.211 66.8461 139.912 67.0117 140.536 67.3429C141.159 67.6741 141.646 68.1515 141.997 68.775C142.348 69.3984 142.523 70.1291 142.523 70.9669C142.523 71.8144 142.348 72.5499 141.997 73.1734C141.646 73.7969 141.159 74.2742 140.536 74.6055C139.912 74.9367 139.211 75.1023 138.432 75.1023C137.652 75.1023 136.951 74.9367 136.327 74.6055C135.714 74.2742 135.226 73.7969 134.866 73.1734C134.515 72.5402 134.34 71.8047 134.34 70.9669C134.34 70.1291 134.515 69.3984 134.866 68.775C135.226 68.1515 135.714 67.6741 136.327 67.3429C136.951 67.0117 137.652 66.8461 138.432 66.8461ZM138.432 68.2928C138.003 68.2928 137.608 68.3902 137.248 68.585C136.887 68.7798 136.595 69.0818 136.371 69.491C136.157 69.8904 136.05 70.3824 136.05 70.9669C136.05 71.5611 136.157 72.058 136.371 72.4574C136.595 72.8568 136.887 73.1539 137.248 73.3488C137.608 73.5436 138.003 73.641 138.432 73.641C138.86 73.641 139.255 73.5436 139.615 73.3488C139.976 73.1539 140.263 72.8568 140.477 72.4574C140.701 72.058 140.813 71.5611 140.813 70.9669C140.813 70.3824 140.701 69.8904 140.477 69.491C140.263 69.0818 139.976 68.7798 139.615 68.585C139.255 68.3902 138.86 68.2928 138.432 68.2928ZM151.256 66.9484V75H149.575V73.2465C149.371 73.8407 149.015 74.3035 148.508 74.6347C148.002 74.9562 147.413 75.1169 146.74 75.1169C145.805 75.1169 145.055 74.8149 144.49 74.2109C143.925 73.6069 143.642 72.7448 143.642 71.6245V66.9484H145.308V71.4491C145.308 72.1797 145.493 72.7448 145.864 73.1442C146.234 73.5339 146.74 73.7287 147.383 73.7287C148.046 73.7287 148.577 73.5144 148.976 73.0857C149.376 72.6571 149.575 72.0336 149.575 71.2153V66.9484H151.256ZM160.592 66.8169C161.527 66.8169 162.277 67.1189 162.842 67.7229C163.407 68.3268 163.69 69.189 163.69 70.3093V75H162.024V70.4847C162.024 69.7638 161.839 69.2085 161.469 68.8188C161.098 68.4194 160.592 68.2197 159.949 68.2197C159.286 68.2197 158.756 68.434 158.356 68.8626C157.957 69.2815 157.757 69.9002 157.757 70.7185V75H156.091V64.1866H157.757V68.7165C157.971 68.1125 158.332 67.6449 158.838 67.3137C159.345 66.9825 159.929 66.8169 160.592 66.8169ZM168.575 66.8461C169.306 66.8461 169.929 67.0263 170.446 67.3868C170.962 67.7472 171.327 68.2246 171.541 68.8188V66.9484H173.207V75H171.541V73.1296C171.327 73.7238 170.962 74.2012 170.446 74.5616C169.929 74.9221 169.306 75.1023 168.575 75.1023C167.874 75.1023 167.245 74.9367 166.69 74.6055C166.145 74.2742 165.716 73.7969 165.404 73.1734C165.092 72.5499 164.937 71.8144 164.937 70.9669C164.937 70.1291 165.092 69.3984 165.404 68.775C165.716 68.1515 166.145 67.6741 166.69 67.3429C167.245 67.0117 167.874 66.8461 168.575 66.8461ZM169.087 68.3074C168.346 68.3074 167.752 68.546 167.304 69.0234C166.865 69.491 166.646 70.1388 166.646 70.9669C166.646 71.7949 166.865 72.4476 167.304 72.925C167.752 73.3926 168.346 73.6264 169.087 73.6264C169.554 73.6264 169.973 73.5192 170.343 73.3049C170.713 73.0809 171.006 72.7691 171.22 72.3697C171.434 71.9703 171.541 71.5027 171.541 70.9669C171.541 70.4408 171.434 69.9781 171.22 69.5787C171.006 69.1695 170.713 68.8578 170.343 68.6435C169.973 68.4194 169.554 68.3074 169.087 68.3074ZM178.217 73.2757L180.496 66.9484H182.279L179.21 75H177.194L174.125 66.9484H175.908L178.217 73.2757ZM190.694 70.587C190.694 70.8597 190.675 71.0984 190.636 71.303H184.44C184.469 72.131 184.698 72.7448 185.127 73.1442C185.556 73.5436 186.086 73.7433 186.72 73.7433C187.275 73.7433 187.743 73.602 188.122 73.3195C188.512 73.037 188.751 72.662 188.839 72.1944H190.621C190.514 72.7594 190.29 73.2611 189.949 73.6995C189.608 74.1378 189.165 74.4837 188.619 74.737C188.074 74.9805 187.465 75.1023 186.793 75.1023C186.013 75.1023 185.322 74.9367 184.718 74.6055C184.123 74.2742 183.656 73.7969 183.315 73.1734C182.974 72.5499 182.803 71.8144 182.803 70.9669C182.803 70.1291 182.974 69.3984 183.315 68.775C183.656 68.1515 184.123 67.6741 184.718 67.3429C185.322 67.0117 186.013 66.8461 186.793 66.8461C187.582 66.8461 188.269 67.0117 188.853 67.3429C189.447 67.6644 189.9 68.1125 190.212 68.6873C190.534 69.2523 190.694 69.8855 190.694 70.587ZM189.014 70.5431C189.033 70.0171 188.941 69.5787 188.736 69.228C188.541 68.8675 188.269 68.6045 187.918 68.4389C187.577 68.2635 187.202 68.1758 186.793 68.1758C186.14 68.1758 185.594 68.3756 185.156 68.775C184.718 69.1744 184.479 69.7638 184.44 70.5431H189.014ZM199.761 66.8461C200.462 66.8461 201.086 67.0117 201.631 67.3429C202.186 67.6741 202.62 68.1515 202.932 68.775C203.243 69.3984 203.399 70.1291 203.399 70.9669C203.399 71.8144 203.243 72.5499 202.932 73.1734C202.62 73.7969 202.186 74.2742 201.631 74.6055C201.086 74.9367 200.462 75.1023 199.761 75.1023C199.03 75.1023 198.407 74.9221 197.89 74.5616C197.374 74.2012 197.014 73.7238 196.809 73.1296V75H195.143V64.1866H196.809V68.8188C197.014 68.2246 197.374 67.7472 197.89 67.3868C198.407 67.0263 199.03 66.8461 199.761 66.8461ZM199.249 68.3074C198.782 68.3074 198.363 68.4194 197.993 68.6435C197.622 68.8578 197.33 69.1695 197.116 69.5787C196.902 69.9781 196.794 70.4408 196.794 70.9669C196.794 71.5027 196.902 71.9703 197.116 72.3697C197.33 72.7691 197.622 73.0809 197.993 73.3049C198.363 73.5192 198.782 73.6264 199.249 73.6264C199.99 73.6264 200.584 73.3926 201.032 72.925C201.48 72.4476 201.704 71.7949 201.704 70.9669C201.704 70.1486 201.48 69.5007 201.032 69.0234C200.584 68.546 199.99 68.3074 199.249 68.3074ZM212.193 70.587C212.193 70.8597 212.174 71.0984 212.135 71.303H205.939C205.968 72.131 206.197 72.7448 206.626 73.1442C207.055 73.5436 207.585 73.7433 208.219 73.7433C208.774 73.7433 209.242 73.602 209.621 73.3195C210.011 73.037 210.25 72.662 210.338 72.1944H212.12C212.013 72.7594 211.789 73.2611 211.448 73.6995C211.107 74.1378 210.664 74.4837 210.118 74.737C209.573 74.9805 208.964 75.1023 208.292 75.1023C207.512 75.1023 206.821 74.9367 206.217 74.6055C205.622 74.2742 205.155 73.7969 204.814 73.1734C204.473 72.5499 204.302 71.8144 204.302 70.9669C204.302 70.1291 204.473 69.3984 204.814 68.775C205.155 68.1515 205.622 67.6741 206.217 67.3429C206.821 67.0117 207.512 66.8461 208.292 66.8461C209.081 66.8461 209.768 67.0117 210.352 67.3429C210.946 67.6644 211.399 68.1125 211.711 68.6873C212.033 69.2523 212.193 69.8855 212.193 70.587ZM210.513 70.5431C210.532 70.0171 210.44 69.5787 210.235 69.228C210.04 68.8675 209.768 68.6045 209.417 68.4389C209.076 68.2635 208.701 68.1758 208.292 68.1758C207.639 68.1758 207.093 68.3756 206.655 68.775C206.217 69.1744 205.978 69.7638 205.939 70.5431H210.513ZM220.991 70.587C220.991 70.8597 220.972 71.0984 220.933 71.303H214.737C214.766 72.131 214.995 72.7448 215.424 73.1442C215.852 73.5436 216.383 73.7433 217.017 73.7433C217.572 73.7433 218.039 73.602 218.419 73.3195C218.809 73.037 219.048 72.662 219.135 72.1944H220.918C220.811 72.7594 220.587 73.2611 220.246 73.6995C219.905 74.1378 219.462 74.4837 218.916 74.737C218.371 74.9805 217.762 75.1023 217.09 75.1023C216.31 75.1023 215.619 74.9367 215.015 74.6055C214.42 74.2742 213.953 73.7969 213.612 73.1734C213.271 72.5499 213.1 71.8144 213.1 70.9669C213.1 70.1291 213.271 69.3984 213.612 68.775C213.953 68.1515 214.42 67.6741 215.015 67.3429C215.619 67.0117 216.31 66.8461 217.09 66.8461C217.879 66.8461 218.566 67.0117 219.15 67.3429C219.744 67.6644 220.197 68.1125 220.509 68.6873C220.83 69.2523 220.991 69.8855 220.991 70.587ZM219.311 70.5431C219.33 70.0171 219.238 69.5787 219.033 69.228C218.838 68.8675 218.566 68.6045 218.215 68.4389C217.874 68.2635 217.499 68.1758 217.09 68.1758C216.437 68.1758 215.891 68.3756 215.453 68.775C215.015 69.1744 214.776 69.7638 214.737 70.5431H219.311ZM226.808 66.8169C227.743 66.8169 228.493 67.1189 229.058 67.7229C229.624 68.3268 229.906 69.189 229.906 70.3093V75H228.24V70.4847C228.24 69.7638 228.055 69.2085 227.685 68.8188C227.315 68.4194 226.808 68.2197 226.165 68.2197C225.503 68.2197 224.972 68.434 224.572 68.8626C224.173 69.2815 223.973 69.9002 223.973 70.7185V75H222.307V66.9484H223.973V68.7165C224.188 68.1125 224.548 67.6449 225.055 67.3137C225.561 66.9825 226.146 66.8169 226.808 66.8169ZM239.298 64.5811C240.564 64.5811 241.616 64.9026 242.454 65.5456C243.292 66.1885 243.857 67.0604 244.149 68.1612H242.381C242.137 67.5378 241.748 67.0458 241.212 66.6853C240.686 66.3152 240.038 66.1301 239.268 66.1301C238.655 66.1301 238.104 66.2811 237.617 66.5831C237.14 66.8851 236.76 67.3186 236.477 67.8836C236.205 68.4389 236.068 69.0916 236.068 69.8417C236.068 70.5821 236.205 71.2348 236.477 71.7998C236.76 72.3551 237.14 72.7837 237.617 73.0857C238.104 73.3877 238.655 73.5387 239.268 73.5387C240.038 73.5387 240.686 73.3585 241.212 72.9981C241.748 72.6279 242.137 72.1359 242.381 71.5222H244.149C243.857 72.623 243.292 73.4949 242.454 74.1378C241.616 74.7711 240.564 75.0877 239.298 75.0877C238.323 75.0877 237.461 74.8685 236.711 74.4301C235.961 73.982 235.381 73.3634 234.972 72.5743C234.563 71.7755 234.358 70.8646 234.358 69.8417C234.358 68.8188 234.563 67.9128 234.972 67.1237C235.381 66.3249 235.961 65.7014 236.711 65.2533C237.461 64.8052 238.323 64.5811 239.298 64.5811ZM247.185 68.5266C247.457 68.0005 247.847 67.5865 248.354 67.2845C248.86 66.9727 249.445 66.8169 250.107 66.8169V68.6288H249.61C248.88 68.6288 248.29 68.8091 247.842 69.1695C247.404 69.5202 247.185 70.1047 247.185 70.923V75H245.519V66.9484H247.185V68.5266ZM258.545 70.587C258.545 70.8597 258.525 71.0984 258.486 71.303H252.291C252.32 72.131 252.549 72.7448 252.977 73.1442C253.406 73.5436 253.937 73.7433 254.57 73.7433C255.125 73.7433 255.593 73.602 255.973 73.3195C256.363 73.037 256.601 72.662 256.689 72.1944H258.472C258.365 72.7594 258.141 73.2611 257.8 73.6995C257.459 74.1378 257.015 74.4837 256.47 74.737C255.924 74.9805 255.315 75.1023 254.643 75.1023C253.864 75.1023 253.172 74.9367 252.568 74.6055C251.974 74.2742 251.506 73.7969 251.165 73.1734C250.824 72.5499 250.654 71.8144 250.654 70.9669C250.654 70.1291 250.824 69.3984 251.165 68.775C251.506 68.1515 251.974 67.6741 252.568 67.3429C253.172 67.0117 253.864 66.8461 254.643 66.8461C255.432 66.8461 256.119 67.0117 256.704 67.3429C257.298 67.6644 257.751 68.1125 258.063 68.6873C258.384 69.2523 258.545 69.8855 258.545 70.587ZM256.864 70.5431C256.884 70.0171 256.791 69.5787 256.587 69.228C256.392 68.8675 256.119 68.6045 255.768 68.4389C255.427 68.2635 255.052 68.1758 254.643 68.1758C253.991 68.1758 253.445 68.3756 253.007 68.775C252.568 69.1744 252.33 69.7638 252.291 70.5431H256.864ZM263.09 66.8461C263.821 66.8461 264.445 67.0263 264.961 67.3868C265.477 67.7472 265.838 68.2246 266.042 68.8188V64.1866H267.723V75H266.042V73.1296C265.838 73.7238 265.477 74.2012 264.961 74.5616C264.445 74.9221 263.821 75.1023 263.09 75.1023C262.389 75.1023 261.761 74.9367 261.205 74.6055C260.66 74.2742 260.231 73.7969 259.919 73.1734C259.608 72.5499 259.452 71.8144 259.452 70.9669C259.452 70.1291 259.608 69.3984 259.919 68.775C260.231 68.1515 260.66 67.6741 261.205 67.3429C261.761 67.0117 262.389 66.8461 263.09 66.8461ZM263.602 68.3074C262.861 68.3074 262.267 68.546 261.819 69.0234C261.381 69.491 261.162 70.1388 261.162 70.9669C261.162 71.7949 261.381 72.4476 261.819 72.925C262.267 73.3926 262.861 73.6264 263.602 73.6264C264.069 73.6264 264.488 73.5192 264.859 73.3049C265.229 73.0809 265.521 72.7691 265.735 72.3697C265.95 71.9703 266.057 71.5027 266.057 70.9669C266.057 70.4408 265.95 69.9781 265.735 69.5787C265.521 69.1695 265.229 68.8578 264.859 68.6435C264.488 68.4194 264.069 68.3074 263.602 68.3074ZM269.196 64.6103C269.196 64.3278 269.293 64.094 269.488 63.9089C269.683 63.7238 269.941 63.6313 270.262 63.6313C270.584 63.6313 270.842 63.7238 271.037 63.9089C271.241 64.094 271.344 64.3278 271.344 64.6103C271.344 64.8929 271.241 65.1218 271.037 65.2971C270.842 65.4725 270.584 65.5602 270.262 65.5602C269.941 65.5602 269.683 65.4725 269.488 65.2971C269.293 65.1218 269.196 64.8929 269.196 64.6103ZM271.095 66.9484V75H269.429V66.9484H271.095ZM276.867 73.5533V75H275.844C274.987 75 274.334 74.7954 273.886 74.3863C273.447 73.9674 273.228 73.2757 273.228 72.3113V68.3658H272.074V66.9484H273.228V64.9464H274.909V66.9484H276.852V68.3658H274.909V72.3405C274.909 72.7983 274.991 73.115 275.157 73.2903C275.332 73.4657 275.634 73.5533 276.063 73.5533H276.867ZM285.617 70.587C285.617 70.8597 285.597 71.0984 285.558 71.303H279.362C279.392 72.131 279.621 72.7448 280.049 73.1442C280.478 73.5436 281.009 73.7433 281.642 73.7433C282.197 73.7433 282.665 73.602 283.045 73.3195C283.434 73.037 283.673 72.662 283.761 72.1944H285.544C285.436 72.7594 285.212 73.2611 284.871 73.6995C284.53 74.1378 284.087 74.4837 283.542 74.737C282.996 74.9805 282.387 75.1023 281.715 75.1023C280.936 75.1023 280.244 74.9367 279.64 74.6055C279.046 74.2742 278.578 73.7969 278.237 73.1734C277.896 72.5499 277.726 71.8144 277.726 70.9669C277.726 70.1291 277.896 69.3984 278.237 68.775C278.578 68.1515 279.046 67.6741 279.64 67.3429C280.244 67.0117 280.936 66.8461 281.715 66.8461C282.504 66.8461 283.191 67.0117 283.775 67.3429C284.37 67.6644 284.823 68.1125 285.134 68.6873C285.456 69.2523 285.617 69.8855 285.617 70.587ZM283.936 70.5431C283.956 70.0171 283.863 69.5787 283.659 69.228C283.464 68.8675 283.191 68.6045 282.84 68.4389C282.499 68.2635 282.124 68.1758 281.715 68.1758C281.062 68.1758 280.517 68.3756 280.078 68.775C279.64 69.1744 279.401 69.7638 279.362 70.5431H283.936ZM290.162 66.8461C290.893 66.8461 291.516 67.0263 292.033 67.3868C292.549 67.7472 292.909 68.2246 293.114 68.8188V64.1866H294.794V75H293.114V73.1296C292.909 73.7238 292.549 74.2012 292.033 74.5616C291.516 74.9221 290.893 75.1023 290.162 75.1023C289.461 75.1023 288.832 74.9367 288.277 74.6055C287.732 74.2742 287.303 73.7969 286.991 73.1734C286.68 72.5499 286.524 71.8144 286.524 70.9669C286.524 70.1291 286.68 69.3984 286.991 68.775C287.303 68.1515 287.732 67.6741 288.277 67.3429C288.832 67.0117 289.461 66.8461 290.162 66.8461ZM290.674 68.3074C289.933 68.3074 289.339 68.546 288.891 69.0234C288.453 69.491 288.233 70.1388 288.233 70.9669C288.233 71.7949 288.453 72.4476 288.891 72.925C289.339 73.3926 289.933 73.6264 290.674 73.6264C291.141 73.6264 291.56 73.5192 291.93 73.3049C292.301 73.0809 292.593 72.7691 292.807 72.3697C293.021 71.9703 293.129 71.5027 293.129 70.9669C293.129 70.4408 293.021 69.9781 292.807 69.5787C292.593 69.1695 292.301 68.8578 291.93 68.6435C291.56 68.4194 291.141 68.3074 290.674 68.3074ZM137.289 83.9484L135.054 92H133.212L131.225 85.775L129.208 92H127.382L125.146 83.9484H126.827L128.361 90.4657L130.377 83.9484H132.131L134.177 90.4657L135.711 83.9484H137.289ZM137.897 81.6103C137.897 81.3278 137.995 81.094 138.19 80.9089C138.384 80.7238 138.643 80.6313 138.964 80.6313C139.286 80.6313 139.544 80.7238 139.739 80.9089C139.943 81.094 140.045 81.3278 140.045 81.6103C140.045 81.8929 139.943 82.1218 139.739 82.2971C139.544 82.4725 139.286 82.5602 138.964 82.5602C138.643 82.5602 138.384 82.4725 138.19 82.2971C137.995 82.1218 137.897 81.8929 137.897 81.6103ZM139.797 83.9484V92H138.131V83.9484H139.797ZM145.568 90.5533V92H144.545C143.688 92 143.035 91.7954 142.587 91.3863C142.149 90.9674 141.93 90.2757 141.93 89.3113V85.3658H140.775V83.9484H141.93V81.9464H143.61V83.9484H145.554V85.3658H143.61V89.3405C143.61 89.7983 143.693 90.115 143.859 90.2903C144.034 90.4657 144.336 90.5533 144.765 90.5533H145.568ZM151.337 83.8169C152.273 83.8169 153.023 84.1189 153.588 84.7229C154.153 85.3268 154.435 86.189 154.435 87.3093V92H152.769V87.4847C152.769 86.7638 152.584 86.2085 152.214 85.8188C151.844 85.4194 151.337 85.2197 150.694 85.2197C150.032 85.2197 149.501 85.434 149.102 85.8626C148.702 86.2815 148.502 86.9002 148.502 87.7185V92H146.837V81.1866H148.502V85.7165C148.717 85.1125 149.077 84.6449 149.584 84.3137C150.09 83.9825 150.675 83.8169 151.337 83.8169ZM167.568 92H165.902L160.89 84.3868V92H159.224V81.698H160.89L165.902 89.3405V81.698H167.568V92ZM176.189 82.9985H171.089V86.0672C171.323 85.7652 171.654 85.5266 172.083 85.3512C172.511 85.1661 172.984 85.0736 173.5 85.0736C174.221 85.0736 174.82 85.2294 175.298 85.5412C175.775 85.8432 176.126 86.2474 176.35 86.754C176.583 87.2606 176.7 87.8208 176.7 88.4345C176.7 89.5158 176.398 90.3926 175.794 91.0648C175.19 91.7272 174.314 92.0585 173.164 92.0585C172.083 92.0585 171.211 91.7711 170.548 91.1963C169.886 90.6215 169.525 89.8568 169.467 88.9021H171.104C171.191 89.4282 171.406 89.8422 171.747 90.1442C172.097 90.4462 172.541 90.5972 173.076 90.5972C173.739 90.5972 174.236 90.3975 174.567 89.9981C174.898 89.5986 175.064 89.0677 175.064 88.4053C175.064 87.7818 174.893 87.2947 174.552 86.944C174.211 86.5835 173.724 86.4033 173.091 86.4033C172.643 86.4033 172.248 86.5007 171.907 86.6956C171.576 86.8904 171.333 87.1486 171.177 87.47H169.555V81.5227H176.189V82.9985ZM179.141 90.8602C179.316 91.3083 179.404 91.7711 179.404 92.2484C179.404 92.794 179.263 93.2372 178.98 93.5782C178.698 93.9289 178.269 94.1042 177.694 94.1042V93.432C177.938 93.432 178.118 93.3687 178.235 93.2421C178.352 93.1154 178.41 92.9011 178.41 92.5991V92.4676H177.563V90.8602H179.141ZM181.28 90.641C180.695 89.7058 180.403 88.415 180.403 86.7686C180.403 85.132 180.695 83.851 181.28 82.9255C181.864 82 182.838 81.5373 184.202 81.5373C185.566 81.5373 186.54 82.0049 187.125 82.9401C187.709 83.8656 188.002 85.1418 188.002 86.7686C188.002 88.4053 187.709 89.6912 187.125 90.6264C186.54 91.5616 185.566 92.0292 184.202 92.0292C182.838 92.0292 181.864 91.5665 181.28 90.641ZM185.897 89.5012C186.19 88.868 186.336 87.9571 186.336 86.7686C186.336 85.5996 186.19 84.7034 185.897 84.0799C185.605 83.4467 185.04 83.1301 184.202 83.1301C183.355 83.1301 182.785 83.4418 182.493 84.0653C182.2 84.6888 182.054 85.5899 182.054 86.7686C182.054 87.9571 182.2 88.868 182.493 89.5012C182.785 90.1344 183.355 90.451 184.202 90.451C185.04 90.451 185.605 90.1344 185.897 89.5012ZM190.092 90.641C189.507 89.7058 189.215 88.415 189.215 86.7686C189.215 85.132 189.507 83.851 190.092 82.9255C190.676 82 191.651 81.5373 193.014 81.5373C194.378 81.5373 195.352 82.0049 195.937 82.9401C196.522 83.8656 196.814 85.1418 196.814 86.7686C196.814 88.4053 196.522 89.6912 195.937 90.6264C195.352 91.5616 194.378 92.0292 193.014 92.0292C191.651 92.0292 190.676 91.5665 190.092 90.641ZM194.71 89.5012C195.002 88.868 195.148 87.9571 195.148 86.7686C195.148 85.5996 195.002 84.7034 194.71 84.0799C194.417 83.4467 193.852 83.1301 193.014 83.1301C192.167 83.1301 191.597 83.4418 191.305 84.0653C191.012 84.6888 190.866 85.5899 190.866 86.7686C190.866 87.9571 191.012 88.868 191.305 89.5012C191.597 90.1344 192.167 90.451 193.014 90.451C193.852 90.451 194.417 90.1344 194.71 89.5012ZM198.904 90.641C198.32 89.7058 198.027 88.415 198.027 86.7686C198.027 85.132 198.32 83.851 198.904 82.9255C199.489 82 200.463 81.5373 201.827 81.5373C203.19 81.5373 204.165 82.0049 204.749 82.9401C205.334 83.8656 205.626 85.1418 205.626 86.7686C205.626 88.4053 205.334 89.6912 204.749 90.6264C204.165 91.5616 203.19 92.0292 201.827 92.0292C200.463 92.0292 199.489 91.5665 198.904 90.641ZM203.522 89.5012C203.814 88.868 203.96 87.9571 203.96 86.7686C203.96 85.5996 203.814 84.7034 203.522 84.0799C203.229 83.4467 202.664 83.1301 201.827 83.1301C200.979 83.1301 200.409 83.4418 200.117 84.0653C199.825 84.6888 199.679 85.5899 199.679 86.7686C199.679 87.9571 199.825 88.868 200.117 89.5012C200.409 90.1344 200.979 90.451 201.827 90.451C202.664 90.451 203.229 90.1344 203.522 89.5012ZM208.403 90.1588V92H206.518V90.1588H208.403Z" fill="black"/>
<defs>
<filter id="filter0_d_11_26" x="0" y="0" width="378" height="164" filterUnits="userSpaceOnUse" color-interpolation-filters="sRGB">
<feFlood flood-opacity="0" result="BackgroundImageFix"/>
<feColorMatrix in="SourceAlpha" type="matrix" values="0 0 0 0 0 0 0 0 0 0 0 0 0 0 0 0 0 0 127 0" result="hardAlpha"/>
<feMorphology radius="1" operator="dilate" in="SourceAlpha" result="effect1_dropShadow_11_26"/>
<feOffset dy="4"/>
<feGaussianBlur stdDeviation="21.5"/>
<feComposite in2="hardAlpha" operator="out"/>
<feColorMatrix type="matrix" values="0 0 0 0 0 0 0 0 0 0 0 0 0 0 0 0 0 0 0.08 0"/>
<feBlend mode="normal" in2="BackgroundImageFix" result="effect1_dropShadow_11_26"/>
<feBlend mode="normal" in="SourceGraphic" in2="effect1_dropShadow_11_26" result="shape"/>
</filter>
</defs>
</svg>
