<svg width="40" height="39" viewBox="0 0 40 39" fill="none" xmlns="http://www.w3.org/2000/svg">
<path d="M8.12962 0.124472C6.67077 0.519943 5.60739 1.62727 5.2998 3.05097C5.22949 3.37614 5.20312 6.21475 5.20312 12.6478V21.7876H20.319H35.4348V12.6478C35.4348 6.21475 35.4085 3.37614 35.3382 3.05097C35.0306 1.60969 33.8178 0.396908 32.3765 0.0893173C32.0426 0.0190105 28.5712 -0.00735283 20.2487 0.00143433C10.5025 0.00143433 8.50752 0.0277996 8.12962 0.124472ZM23.6322 4.49225C25.2404 5.42381 26.5587 6.20597 26.5587 6.23233C26.5587 6.30264 20.442 9.83553 20.319 9.83553C20.2047 9.83553 14.0793 6.30264 14.0793 6.23233C14.0793 6.1796 19.3347 3.12128 19.8708 2.86642C20.0553 2.77853 20.2926 2.73459 20.4508 2.76096C20.5914 2.78732 22.0239 3.56948 23.6322 4.49225ZM16.5224 10.1431L19.2644 11.725V15.3458C19.2644 17.3407 19.2468 18.9753 19.2204 18.9753C19.1941 18.9753 17.8319 18.202 16.1973 17.2616C13.6223 15.7764 13.2005 15.504 13.0774 15.2491C12.9544 14.9943 12.9368 14.4757 12.9368 11.5141V8.07787L13.3587 8.31515C13.5872 8.45577 15.0109 9.27308 16.5224 10.1431ZM27.543 15.2667C27.4111 15.5215 26.9629 15.8116 24.4934 17.2353C22.8939 18.158 21.5406 18.9314 21.4878 18.949C21.3999 18.9841 21.3736 18.2283 21.3736 15.3546V11.725L24.5198 9.91462L27.6572 8.10424L27.6836 11.5317C27.7011 14.6779 27.6924 14.9855 27.543 15.2667Z" fill="#FE740E"/>
<path d="M1.64398 5.69639C1.54731 5.74033 1.37154 5.88095 1.24851 6.01277L1.0288 6.25005L1.00243 17.1124C0.984857 24.9691 1.00243 28.1329 1.07274 28.5108C1.28366 29.5917 2.08339 30.6815 3.00616 31.1473C4.00803 31.657 3.05889 31.6306 20.2927 31.6306C31.6911 31.6306 36.261 31.6043 36.595 31.534C38.0626 31.2176 39.2578 30.0048 39.5654 28.5196C39.627 28.2208 39.6445 24.5121 39.6357 17.1563L39.6094 6.23248L39.3194 5.95125C39.0733 5.70518 38.9766 5.66124 38.5987 5.66124C38.2208 5.66124 38.1242 5.70518 37.8781 5.95125L37.5881 6.23248L37.5617 15.0647L37.5441 23.8969H20.3191H3.09405L3.07647 15.0647L3.0501 6.23248L2.77767 5.96004C2.48765 5.67003 1.96914 5.55578 1.64398 5.69639Z" fill="#FE740E"/>
<path d="M14.422 33.7573C14.4133 33.7748 14.2902 34.3988 14.132 35.1458L13.8508 36.508L12.6468 36.5519L11.4428 36.5959L11.1616 36.8859C10.9155 37.132 10.8716 37.2286 10.8716 37.6065C10.8716 37.9844 10.9155 38.0811 11.1616 38.3272L11.4428 38.6172H20.319H29.1952L29.4764 38.3272C29.7225 38.0811 29.7664 37.9844 29.7664 37.6065C29.7664 37.2286 29.7225 37.132 29.4764 36.8859L29.1952 36.5959L27.9912 36.5519L26.7872 36.508L26.5147 35.1458L26.2423 33.7836L20.3366 33.7573C17.0849 33.7485 14.4308 33.7485 14.422 33.7573Z" fill="#FE740E"/>
</svg>
