<svg width="42" height="32" viewBox="0 0 42 32" fill="none" xmlns="http://www.w3.org/2000/svg">
<path d="M6.22594 0.00893593C6.18525 0.0170746 6.0469 0.0496254 5.92483 0.0740395C5.59117 0.147282 5.15172 0.570459 5.00524 0.961084C4.8913 1.27033 4.88317 2.45034 4.89944 12.8345L4.92386 24.3579L5.17613 24.6753C5.62373 25.2287 5.81904 25.2938 7.21064 25.3589C8.65107 25.4321 9.04983 25.4728 10.3763 25.6844C13.9571 26.2703 17.0577 27.7352 19.3119 29.8999L19.6944 30.2661V18.5555C19.6944 12.1102 19.6618 6.69839 19.6211 6.52749C19.4258 5.69741 17.5134 3.58153 16.1136 2.64566C14.0384 1.27033 11.3854 0.375147 8.62666 0.131006C7.57685 0.03335 6.34801 -0.0236168 6.22594 0.00893593Z" fill="#FE740E"/>
<path d="M34.0576 0.0408401C30.6397 0.244291 27.9134 1.08251 25.5534 2.65315C24.1536 3.57274 22.2412 5.69677 22.0459 6.52685C22.0052 6.69774 21.9727 12.1095 21.9727 18.5467V30.2573L22.404 29.8586C24.7233 27.6776 27.7181 26.2697 31.2907 25.6838C32.6172 25.4722 33.016 25.4315 34.4564 25.3582C35.848 25.2931 36.0433 25.228 36.4909 24.6746L36.7432 24.3573L36.7676 12.8745C36.7839 4.85855 36.7676 1.2941 36.7025 1.08251C36.6048 0.724434 36.2793 0.32567 35.9782 0.171049C35.6527 0.000150681 35.2132 -0.0242634 34.0576 0.0408401Z" fill="#FE740E"/>
<path d="M0.854721 5.32318C0.464096 5.50221 0.293198 5.68125 0.122299 6.08815C0.0165047 6.34857 0.000228644 7.78086 0.000228644 18.4742C0.000228644 31.609 -0.0241854 30.8684 0.431544 31.3567C0.870997 31.8369 1.35114 31.8938 2.62067 31.6253C7.47907 30.608 12.5898 30.4697 16.4797 31.2509C17.0087 31.3567 17.4644 31.4381 17.4807 31.4218C17.5295 31.3649 16.7076 30.6894 16.0321 30.2418C14.3476 29.1188 12.1747 28.3212 9.66006 27.9062C9.26944 27.8411 8.1708 27.7434 7.21866 27.6783C6.16071 27.6051 5.36319 27.5156 5.1516 27.4342C4.01227 27.0273 3.11709 26.0914 2.76716 24.9521C2.61253 24.4557 2.6044 24.1464 2.6044 14.804V5.16855H1.89639C1.37555 5.16855 1.09072 5.21738 0.854721 5.32318Z" fill="#FE740E"/>
<path d="M39.0629 14.804C39.0629 24.1464 39.0548 24.4557 38.9002 24.9521C38.5502 26.0914 37.6551 27.0273 36.5157 27.4342C36.3041 27.5156 35.5229 27.6051 34.465 27.6783C33.5291 27.7353 32.5037 27.8248 32.1863 27.8736C29.6635 28.2643 27.3279 29.1106 25.6352 30.2418C24.9679 30.6894 24.1378 31.3649 24.1866 31.4218C24.2029 31.4381 24.6586 31.3567 25.1876 31.2509C29.0776 30.4697 34.1883 30.608 39.0467 31.6253C40.3162 31.8938 40.7963 31.8369 41.2358 31.3567C41.6915 30.8684 41.6671 31.609 41.6671 18.4579C41.6671 6.88568 41.659 6.33229 41.5125 6.02305C41.2195 5.38828 40.7719 5.16855 39.7547 5.16855H39.0629V14.804Z" fill="#FE740E"/>
</svg>
