<svg width="36" height="50" viewBox="0 0 36 50" fill="none" xmlns="http://www.w3.org/2000/svg">
<path d="M15.4621 0.057456C13.6896 0.279016 12.1915 0.890945 10.7671 1.97765C10.5667 2.1359 10.0919 2.34691 9.7121 2.45242C8.87861 2.67398 8.20338 3.096 7.57035 3.77123C6.48364 4.93178 6.33594 5.61757 6.33594 9.5107C6.33594 12.6547 6.37814 12.9713 6.87401 13.3194C7.01117 13.4144 7.29603 13.4882 7.50704 13.4882C7.96071 13.4882 7.89741 13.5304 11.0626 10.9983L13.1938 9.27859L13.9112 9.71116C15.019 10.3864 17.4456 11.5258 18.7855 11.9901C21.3598 12.8869 23.797 13.3511 26.4557 13.4566C28.9351 13.5515 28.9668 13.5199 28.8823 10.1121C28.8401 8.24464 28.7979 7.69601 28.608 6.99968C28.1438 5.2483 27.2681 3.81343 25.8755 2.50517C24.4722 1.18636 22.6576 0.331769 20.769 0.0891075C19.9672 -0.00584698 16.1901 -0.0374985 15.4621 0.057456Z" fill="#FE740E"/>
<path d="M11.2526 13.699C9.25852 15.2922 8.59384 15.7036 8.00301 15.7036C7.73925 15.7036 7.76035 15.978 8.12962 16.9803C8.70989 18.5734 9.58559 19.9344 10.6934 20.9472C15.1668 25.0303 22.721 24.1968 25.9916 19.2592C26.6985 18.2041 27.5847 16.0202 27.3948 15.8302C27.3526 15.7986 26.6985 15.7353 25.9283 15.6825C21.5287 15.4293 18.2159 14.4692 13.4049 12.0426C13.3732 12.0321 12.4131 12.7706 11.2526 13.699Z" fill="#FE740E"/>
<path d="M5.44975 20.0507C3.99378 20.7998 3.10754 21.5805 2.56947 22.625C2.05249 23.6062 1.90479 24.3236 1.90479 25.864C1.90479 27.1195 1.91534 27.225 2.09469 27.1406C2.18965 27.0984 5.5025 27.0456 9.44839 27.014C15.8525 26.9718 16.5594 26.9507 16.0002 26.8135C15.114 26.6131 13.9851 26.0433 13.2466 25.4209C12.8984 25.1255 12.3814 24.7667 12.086 24.6085C10.208 23.6167 8.5094 22.108 7.39104 20.4305C7.03233 19.8924 6.72636 19.4387 6.71581 19.4282C6.71581 19.4176 6.13553 19.7025 5.44975 20.0507Z" fill="#FE740E"/>
<path d="M27.9013 20.3672C26.8146 22.0342 25.0421 23.6167 23.1642 24.6085C22.8793 24.7667 22.3623 25.1149 22.0247 25.3998C21.2123 26.075 20.3472 26.5287 19.3976 26.7713L18.6274 26.9718L25.8018 27.014C29.7477 27.0456 33.0605 27.0984 33.166 27.1406C33.3348 27.225 33.3454 27.1195 33.3454 25.864C33.3454 24.3236 33.1977 23.6062 32.6807 22.625C32.1426 21.5805 31.2564 20.7998 29.7899 20.0507L28.5344 19.4071L27.9013 20.3672Z" fill="#FE740E"/>
<path d="M2.05267 29.5249C1.34579 29.8097 0.691658 30.3795 0.364592 31.023C-0.173483 32.0886 -0.184033 32.057 0.797163 39.9066C1.44074 45.0446 1.75726 47.1969 1.89441 47.5135C2.13708 48.0621 2.67515 48.674 3.19213 49.0011C4.12057 49.5919 3.7091 49.5814 17.8995 49.5497C32.6702 49.5181 31.4675 49.5919 32.4909 48.6635C33.4826 47.7667 33.4404 47.9777 34.4532 39.8644C35.0757 34.9267 35.3395 32.4896 35.2973 32.1625C35.1496 31.1813 34.3688 30.1157 33.4299 29.6093L32.9762 29.3666L17.7835 29.3455C2.91781 29.3244 2.5802 29.3244 2.05267 29.5249ZM19.1656 36.4143C20.8009 37.2478 21.4339 39.3474 20.5688 41.046C19.5981 42.9556 16.7917 43.346 15.2408 41.7951C14.0486 40.6029 13.9853 38.4506 15.1142 37.174C15.8316 36.351 16.5702 36.0556 17.7835 36.1084C18.4376 36.1295 18.7436 36.1928 19.1656 36.4143Z" fill="#FE740E"/>
<path d="M17.1396 38.3771C16.7808 38.5354 16.5698 38.9257 16.5698 39.4216C16.5698 40.4028 17.6882 40.8776 18.374 40.1918C18.7749 39.7909 18.8065 39.0734 18.4373 38.6514C18.1841 38.3455 17.5299 38.2083 17.1396 38.3771Z" fill="#FE740E"/>
</svg>
