<svg width="94" height="94" viewBox="0 0 94 94" fill="none" xmlns="http://www.w3.org/2000/svg">
<path d="M70.7105 0.13533C65.5504 0.759689 60.5188 3.49583 57.195 7.46231C53.7244 11.5941 51.9248 17.4703 52.494 22.7406C52.6226 23.8608 52.7327 24.8708 52.7511 24.9809C52.7878 25.1829 51.8513 25.6787 42.1187 30.6919L36.775 33.4464L35.1039 31.8856C31.2109 28.2313 26.9139 26.4316 21.6619 26.248C15.6388 26.0276 10.7174 27.864 6.51219 31.9039C4.6024 33.7403 3.37205 35.3562 2.28862 37.5047C-3.07348 47.9902 1.31536 60.716 12.0212 65.7843C14.5737 66.9963 16.814 67.5288 19.8623 67.639C22.7087 67.7492 24.6735 67.5288 26.8955 66.831C30.1458 65.8027 32.882 64.1867 35.3059 61.8362L36.7383 60.4406L41.5495 62.9196C51.8146 68.2083 52.7878 68.7224 52.7511 68.9244C52.7327 69.0346 52.6226 70.0262 52.494 71.128C51.7044 78.455 55.0649 85.7636 61.235 90.1525C70.3432 96.6164 83.1241 94.578 89.8451 85.5984C96.0519 77.2798 95.2072 65.8027 87.8618 58.4206C79.7452 50.2673 66.4869 50.3407 58.3886 58.5491C57.6725 59.2837 56.7359 60.4038 56.3136 61.0282C55.8912 61.6525 55.5056 62.1667 55.4505 62.1851C55.3954 62.1851 52.0166 60.4589 47.9215 58.3471C41.274 54.9132 40.4844 54.4541 40.5027 54.0685C40.5211 53.8298 40.7047 53.0034 40.9067 52.2321C41.8249 48.8166 41.8249 45.0704 40.9067 41.6549C40.7047 40.8836 40.5211 40.0572 40.5027 39.8185C40.4844 39.4513 41.3107 38.9738 47.9215 35.5582C52.0166 33.4464 55.3954 31.7203 55.4505 31.7203C55.5056 31.7203 55.7627 32.0692 56.0381 32.4915C58.2234 35.9255 62.2817 38.9922 66.5236 40.4429C70.7105 41.8569 75.8706 41.8385 79.9289 40.3878C83.1424 39.2493 85.8051 37.5231 88.1556 35.0441C89.8634 33.2812 90.8734 31.7937 91.9201 29.6085C95.0052 23.0895 94.3808 15.0647 90.3225 9.09665C88.4862 6.37887 85.4379 3.73455 82.4446 2.22875C78.9372 0.465874 74.4566 -0.342117 70.7105 0.13533ZM75.7787 7.70103C76.9907 8.32539 77.8905 9.22519 78.5332 10.4555C78.9923 11.3002 79.0474 11.6124 79.0474 13.1549C79.0474 14.7158 78.9923 15.0096 78.5332 15.8727C77.9089 17.0663 76.8438 18.1314 75.6869 18.6823C74.9707 19.0496 74.53 19.123 73.0793 19.123C71.5919 19.123 71.2063 19.0496 70.4166 18.6823C68.3599 17.654 67.1663 15.8176 67.0562 13.4855C66.9092 10.6024 68.3967 8.36211 71.0594 7.38885C72.3264 6.92977 74.5484 7.07668 75.7787 7.70103ZM80.9756 21.8592C82.059 22.4284 82.7935 23.2731 83.0873 24.2464C83.4546 25.44 83.4363 28.066 83.069 29.2963C82.7384 30.4532 81.7285 31.6285 80.7001 32.0876C78.5149 33.0241 69.2414 33.1343 66.0829 32.2528C65.1831 31.9957 64.0078 30.949 63.512 29.939C63.0162 28.8923 62.8326 26.248 63.1448 24.7055C63.4937 23.0344 64.6873 21.8959 66.3767 21.5837C66.7807 21.5103 70.0861 21.4552 73.722 21.4735C79.782 21.5103 80.3879 21.547 80.9756 21.8592ZM22.0843 33.4281C24.9857 34.1075 27.024 36.8988 26.7486 39.8369C26.6201 41.1958 25.757 43.0321 24.8388 43.8401C21.2763 46.9619 15.9326 45.3092 14.7573 40.7183C13.9493 37.5231 16.0795 34.1626 19.4033 33.373C20.4132 33.1343 20.8907 33.1526 22.0843 33.4281ZM28.1626 47.88C29.0624 48.1371 30.3845 49.3491 30.6967 50.2122C30.8436 50.6162 30.9354 51.7363 30.9354 53.0034C30.9354 54.9499 30.8987 55.207 30.4213 56.1803C29.852 57.3188 29.1175 57.9982 27.9789 58.4022C25.6468 59.2102 16.9058 59.2837 13.9126 58.4941C12.9026 58.237 11.7274 57.2453 11.2132 56.217C10.8092 55.4641 10.7358 55.005 10.6807 53.3707C10.5705 50.4325 11.0847 49.1104 12.6639 48.2289C13.3434 47.8617 13.8575 47.7515 15.602 47.6597C18.5218 47.476 27.2995 47.6229 28.1626 47.88ZM75.7236 60.0549C79.378 61.8362 80.2961 66.7392 77.5233 69.6957C76.2929 70.9995 74.8789 71.6055 73.0793 71.6238C71.8673 71.6422 71.5368 71.5688 70.4717 71.0362C68.9843 70.3017 67.9192 69.1632 67.3683 67.7125C66.8358 66.2801 66.9276 64.15 67.607 62.8278C68.0845 61.8913 69.3148 60.6058 70.1596 60.1468C71.7755 59.2837 74.0526 59.247 75.7236 60.0549ZM80.9388 74.1947C82.0039 74.6538 82.9221 75.774 83.1975 76.9676C83.3077 77.5001 83.3812 78.7305 83.3261 79.7404C83.271 81.3748 83.1975 81.687 82.7017 82.5684C82.0774 83.6702 80.9756 84.4966 79.7452 84.7904C77.8905 85.2127 73.465 85.3964 70.3432 85.1576C66.5971 84.9005 65.6054 84.6435 64.5404 83.6518C63.3468 82.55 63.0713 81.6502 63.0713 78.9876C63.0713 76.9859 63.108 76.7105 63.5304 75.9576C64.2098 74.7456 65.2749 74.0845 66.7807 73.9193C67.4601 73.8458 70.7655 73.8091 74.0893 73.8274C79.4514 73.8642 80.241 73.9193 80.9388 74.1947Z" fill="#0A094F"/>
</svg>
