<svg width="97" height="70" viewBox="0 0 97 70" fill="none" xmlns="http://www.w3.org/2000/svg">
<path d="M60.052 0.369514C58.1955 1.05149 39.138 11.7169 34.8946 14.4637C31.9583 16.3771 31.0868 18.9534 32.5266 21.5677C33.1517 22.7422 34.0421 23.5378 35.3871 24.163C36.2396 24.5419 36.6184 24.5987 37.8498 24.5419C39.2706 24.4661 39.4032 24.4282 43.4761 22.3633C45.7683 21.2077 48.9698 19.5596 50.5801 18.7072C54.1226 16.8507 55.2971 16.4339 56.8694 16.4339C59.2563 16.4528 58.9532 16.1876 70.6037 27.6865C76.4195 33.4076 81.5154 38.333 81.9132 38.6361C82.9172 39.3559 84.4327 39.7727 86.0808 39.7727C87.1796 39.7538 92.4838 38.9013 96.3863 38.1056L96.9925 37.973V23.3295C96.9925 15.2594 96.9546 8.66692 96.9167 8.66692C96.8599 8.66692 93.2984 9.44361 88.9982 10.3908C80.5682 12.2473 79.9809 12.3041 78.5033 11.5464C78.0865 11.338 75.548 9.27312 72.8391 6.96197C70.1301 4.65082 67.4211 2.3965 66.8149 1.94185C64.3144 0.0474663 62.2874 -0.426128 60.052 0.369514Z" fill="#0A094F"/>
<path d="M34.762 0.615746C31.5036 1.22195 26.4077 3.55204 20.232 7.24609C17.4094 8.93209 16.4433 9.32991 14.6246 9.51935C12.9765 9.70879 11.5747 9.3678 5.66421 7.32187C2.67108 6.2989 0.170495 5.44642 0.113663 5.44642C0.0568315 5.44642 0 12.9861 0 22.1928V38.9202L2.57636 39.8295C3.97821 40.322 5.17167 40.682 5.19061 40.663C5.2285 40.6251 5.49372 40.1137 5.77787 39.5453C6.74401 37.5941 8.27846 35.9839 10.135 34.9041C13.1091 33.1802 17.8451 33.1613 20.6488 34.8662C22.4485 35.946 23.8692 37.5941 24.5891 39.4696C24.9301 40.3031 25.0817 40.4546 26.3319 41.0798C28.4347 42.1596 29.9692 43.8077 30.8595 45.9862C31.2573 46.9334 31.371 47.066 32.3371 47.4828C34.5157 48.4489 36.429 50.4759 37.2247 52.6545C37.452 53.3175 37.774 53.9048 37.9066 53.9806C38.0582 54.0374 38.6833 54.3405 39.3085 54.6436C42.4342 56.1023 44.7075 60.0426 44.4612 63.604L44.3854 64.8354L45.6357 66.2372C47.227 68.0369 48.3826 68.6241 50.0118 68.4726C51.6788 68.321 53.0238 67.317 53.6111 65.7636C53.9331 64.949 53.8763 63.3388 53.5164 62.5621C53.3269 62.2022 52.1714 60.7624 50.9211 59.3985C48.25 56.4433 47.1133 54.9846 47.2081 54.6815C47.3217 54.3594 48.8562 55.6855 52.5881 59.3038C54.5772 61.236 56.3201 62.7705 56.7179 62.941C57.0778 63.0925 57.8356 63.2251 58.3849 63.2251C60.7719 63.2062 62.5147 61.4444 62.5147 59.0764C62.5147 57.3526 62.1926 56.8979 58.4039 53.2607C54.3499 49.3583 52.967 47.7101 54.4067 48.4489C55.1076 48.8278 58.1008 51.2905 61.397 54.2458C63.9923 56.5759 64.5985 57.0116 65.4699 57.2768C68.9745 58.2808 72.0056 54.6625 70.3385 51.4042C70.187 51.0821 69.3913 50.0971 68.5957 49.2256C65.432 45.721 63.2724 43.1068 63.2724 42.7279C63.2724 42.1028 64.4091 42.9931 68.5009 46.8766C70.187 48.4679 71.873 49.9076 72.2329 50.0592C73.7484 50.6843 75.8512 50.2486 76.9499 49.093C78.0486 47.8996 78.3707 45.8536 77.6887 44.376C77.4424 43.8645 74.0894 40.3978 67.4212 33.7296C56.5663 22.9126 56.7747 23.0831 54.3688 22.9126C52.8912 22.8179 52.4745 22.9695 45.9388 26.0005C39.0054 29.2209 38.0203 29.4672 35.3113 28.7852C29.2304 27.2508 26.0857 20.6204 28.8704 15.1457C29.7418 13.4407 30.8216 12.3041 33.0381 10.8644C35.1787 9.44357 39.3464 6.99982 43.0594 4.97283C44.177 4.36662 45.0864 3.79831 45.0864 3.72253C45.0864 3.49521 43.2488 2.15019 42.3016 1.6766C40.2746 0.672577 36.9784 0.198982 34.762 0.615746Z" fill="#0A094F"/>
<path d="M13.1849 38.4845C11.6505 39.1286 10.2107 40.5873 9.30143 42.4059C8.08902 44.8307 8.08902 47.0282 9.32037 48.5248C10.4949 49.9645 12.143 50.3055 14.4163 49.5856C15.0793 49.3962 15.6476 49.2446 15.6855 49.2825C15.7234 49.3204 15.515 50.0024 15.2309 50.798C14.3973 53.1849 14.7573 54.5678 16.6138 55.9697C17.201 56.4243 17.4662 56.5001 18.4513 56.4812C19.0954 56.4622 20.0994 56.3107 20.7056 56.1212C21.3118 55.9507 21.8612 55.8371 21.8991 55.8939C21.9559 55.9318 21.7665 56.6138 21.5013 57.4094C20.914 59.1523 20.914 59.7585 21.4444 60.8761C21.937 61.9559 23.0357 62.7895 24.2102 62.96C25.0059 63.0736 25.3848 63.0168 28.3779 62.3348C28.7946 62.2401 28.7946 62.259 28.1884 63.623C27.3739 65.5363 27.3549 66.7866 28.1316 68.0559C30.2912 71.5415 37.3383 70.0829 39.3653 65.7258C39.7821 64.8544 39.8768 64.3618 39.8768 63.2252C39.8768 61.9938 39.801 61.6718 39.3085 60.7814C38.2287 58.8302 36.5616 57.9777 34.2315 58.1861C33.076 58.2998 32.9244 58.2619 33.0381 57.9967C33.3412 57.1821 33.3791 55.6666 33.0949 54.6815C32.4508 52.484 30.689 51.2337 28.2263 51.2148L26.7866 51.1958L26.8624 50.0024C26.976 48.449 26.635 47.3313 25.8015 46.3462C24.8354 45.2096 23.5472 44.6602 21.8423 44.6602H20.4972L20.592 43.5236C20.7435 42.0081 20.3836 40.8714 19.4553 39.8106C18.3945 38.6171 17.4473 38.1625 15.7234 38.0867C14.5299 38.0299 14.1132 38.0867 13.1849 38.4845Z" fill="#0A094F"/>
</svg>
