<svg width="35" height="35" viewBox="0 0 35 35" fill="none" xmlns="http://www.w3.org/2000/svg">
<path d="M16.5316 0.0800591C15.6514 0.323811 15.8951 0.100372 8.09514 7.88683C4.04618 11.9358 0.640448 15.3822 0.532115 15.5447C-0.307469 16.7973 -0.138198 18.4764 0.931594 19.553C1.55451 20.1691 2.3467 20.4941 3.25399 20.4941H3.71441V25.9108C3.71441 29.5738 3.74149 31.4358 3.78889 31.6796C4.04618 32.9118 5.04149 34.029 6.27379 34.4556C6.72066 34.6113 6.75452 34.6113 10.0248 34.6113C13.2477 34.6113 13.3222 34.6113 13.505 34.4691C13.6066 34.3947 13.7556 34.2457 13.83 34.1441C13.9722 33.9613 13.9722 33.8733 14.0061 29.4384L14.0399 24.9155L14.2431 24.5837C14.5004 24.1707 15.0217 23.8389 15.5227 23.778C15.7123 23.7509 16.6602 23.7441 17.6285 23.7577L19.3889 23.778L19.7478 23.9743C20.0863 24.1639 20.303 24.3874 20.5129 24.7598C20.5873 24.9019 20.6144 25.7348 20.6415 29.4452C20.6754 33.8733 20.6754 33.9613 20.8175 34.1441C20.892 34.2457 21.041 34.3947 21.1425 34.4691C21.3254 34.6113 21.3998 34.6113 24.6228 34.6113C27.8931 34.6113 27.9269 34.6113 28.3738 34.4556C29.6061 34.029 30.6014 32.9118 30.8587 31.6796C30.9061 31.4358 30.9332 29.5738 30.9332 25.9108V20.4941H31.3936C33.0186 20.4941 34.3321 19.3905 34.603 17.7993C34.7045 17.1764 34.603 16.5129 34.3118 15.89C34.1155 15.4837 33.5264 14.8743 26.742 8.08319C22.6998 4.03423 19.2467 0.628498 19.0707 0.513393C18.8946 0.398289 18.5899 0.242558 18.3936 0.168079C17.9196 -0.0147324 17.0123 -0.0553589 16.5316 0.0800591Z" fill="#FE740E"/>
</svg>
