<svg width="189" height="68" viewBox="0 0 189 68" fill="none" xmlns="http://www.w3.org/2000/svg">
<g clip-path="url(#clip0_49_144)">
<path d="M22.8087 67.966C23.6584 66.9806 24.5306 66.0692 25.2892 65.0712C27.3687 62.3358 28.5143 59.2188 28.9181 55.825C29.479 51.2124 28.2633 47.0093 25.9609 43.0494C23.0611 38.0636 19.3031 33.7948 15.0235 29.9607C14.2285 29.2478 13.4264 28.5392 12.5935 27.871C11.8293 27.2602 10.9473 27.01 9.94328 26.9891C6.81492 26.9248 3.68656 26.7892 0.558205 26.6774C0.318426 26.669 0.0197522 26.7221 0.0295678 26.3195C0.0393833 25.917 0.340861 25.998 0.576434 25.998C4.17454 26.0595 7.77264 26.1182 11.3735 26.1965C12.0382 26.2105 12.5949 26.0749 13.0043 25.4976C13.296 25.0909 13.6283 24.7121 13.9859 24.2746C13.3605 23.7938 12.8305 23.2305 12.1784 22.9327C11.6091 22.6727 10.9038 22.6532 10.2546 22.6294C7.06405 22.5567 3.87072 22.5055 0.67459 22.4757C0.172594 22.4757 -0.0503589 22.3541 0.00993665 21.8313C0.0252822 21.572 0.0252822 21.312 0.00993665 21.0527L11.518 21.3043C12.0564 21.3155 12.4799 21.2107 12.7141 20.6152C13.9326 17.5164 15.1834 14.4301 16.4201 11.3382C16.4622 11.2334 16.4931 11.1244 16.5407 10.9818C16.4131 10.8948 16.2801 10.8159 16.1425 10.7456C13.2946 9.4876 10.3934 8.38616 7.26083 8.07027C4.92473 7.83405 2.60825 7.96683 0.420788 8.97882C0.319828 9.02634 0.210454 9.0529 0.0155455 9.11859V8.44207C0.0155455 5.93914 0.0155455 3.4362 0.0155455 0.933265C0.0155455 -0.000443605 0.0155455 -0.000443604 0.936805 -0.000443604C9.52121 -0.000443604 18.1056 -0.000443604 26.69 -0.000443604C28.8508 -0.000443604 31.0131 -0.0297967 33.1697 0.0624559C36.6935 0.213415 40.0504 1.04089 43.1044 2.85799C46.8638 5.09442 49.047 8.40433 49.6626 12.722C50.2894 17.125 49.8028 21.3728 47.7794 25.3914C46.9036 27.1302 45.6801 28.6719 44.1841 29.9216C43.9794 30.0935 43.7831 30.2738 43.5209 30.5044C43.6852 30.6061 43.8562 30.6967 44.0327 30.7756C49.528 32.6933 52.5091 36.7273 53.7922 42.2219C55.0542 47.6089 54.6419 52.8534 52.3507 57.8881C50.5474 61.8494 47.3097 64.3067 43.3358 65.8764C40.3701 67.0477 37.288 67.7661 34.1008 67.8612C30.4059 67.9716 26.7082 67.9534 23.0106 67.9898C22.9427 67.9874 22.8752 67.9794 22.8087 67.966Z" fill="#FE740E"/>
</g>
<path d="M76.2835 20.1672C77.5533 20.4251 78.5651 21.0302 79.319 21.9826C80.0928 22.915 80.4797 24.0162 80.4797 25.286C80.4797 27.0518 79.8845 28.4505 78.6941 29.4822C77.5235 30.4941 75.8172 31 73.5753 31H64.5578V9.98905H73.3967C75.5196 9.98905 77.1465 10.4553 78.2774 11.3878C79.4282 12.3203 80.0035 13.6298 80.0035 15.3162C80.0035 16.6257 79.6563 17.697 78.9619 18.5303C78.2873 19.3636 77.3945 19.9092 76.2835 20.1672ZM68.7541 18.7982H72.5336C73.5852 18.7982 74.3788 18.57 74.9145 18.1137C75.47 17.6375 75.7478 16.9629 75.7478 16.09C75.7478 15.217 75.4799 14.5424 74.9442 14.0662C74.4086 13.5901 73.5852 13.352 72.4741 13.352H68.7541V18.7982ZM72.742 27.5775C73.853 27.5775 74.7062 27.3395 75.3014 26.8633C75.8966 26.3673 76.1942 25.653 76.1942 24.7205C76.1942 23.788 75.8867 23.0738 75.2716 22.5778C74.6764 22.0619 73.8233 21.804 72.7122 21.804H68.7541V27.5775H72.742ZM87.616 17.6673C88.231 16.6157 89.0445 15.7924 90.0563 15.1971C91.0682 14.5821 92.1991 14.2746 93.449 14.2746V18.7684H92.2289C89.1536 18.7684 87.616 20.1969 87.616 23.0539V31H83.4197V14.5127H87.616V17.6673ZM95.2954 9.78072C95.2954 9.10615 95.5334 8.56054 96.0096 8.14389C96.4858 7.7074 97.1107 7.48916 97.8845 7.48916C98.6583 7.48916 99.2833 7.7074 99.7594 8.14389C100.236 8.56054 100.474 9.10615 100.474 9.78072C100.474 10.4355 100.236 10.9811 99.7594 11.4176C99.2833 11.8342 98.6583 12.0425 97.8845 12.0425C97.1107 12.0425 96.4858 11.8342 96.0096 11.4176C95.5334 10.9811 95.2954 10.4355 95.2954 9.78072ZM99.9678 14.5127V31H95.7715V14.5127H99.9678ZM107.96 8.97719V31H103.764V8.97719H107.96ZM115.952 8.97719V31H111.756V8.97719H115.952ZM127.903 11.6556C126.673 11.5763 125.81 11.7548 125.314 12.1913C124.818 12.6278 124.57 13.3917 124.57 14.4829V14.5127H127.903V18.0542H124.57V31H120.374V18.0542H118.261V14.5127H120.374V14.1258C120.374 12.1616 120.929 10.6537 122.04 9.60216C123.171 8.53078 124.838 7.99509 127.04 7.99509C127.417 7.99509 127.705 8.00501 127.903 8.02485V11.6556ZM146.188 14.5127V31H141.992V27.6668C141.555 28.7779 140.831 29.6509 139.819 30.2857C138.827 30.9008 137.676 31.2083 136.367 31.2083C134.462 31.2083 132.944 30.5834 131.813 29.3334C130.683 28.0835 130.117 26.3375 130.117 24.0956V14.5127H134.284V23.6194C134.284 24.9288 134.621 25.9506 135.295 26.6847C135.97 27.399 136.883 27.7561 138.033 27.7561C139.244 27.7561 140.206 27.3692 140.92 26.5954C141.634 25.8217 141.992 24.7106 141.992 23.2623V14.5127H146.188ZM159.824 14.2746C161.729 14.2746 163.247 14.8995 164.378 16.1495C165.508 17.3994 166.074 19.1553 166.074 21.4171V31H161.907V21.8933C161.907 20.5838 161.57 19.5719 160.896 18.8577C160.221 18.1236 159.298 17.7566 158.128 17.7566C156.937 17.7566 155.985 18.1434 155.271 18.9172C154.557 19.691 154.199 20.802 154.199 22.2504V31H150.003V14.5127H154.199V17.8161C154.636 16.705 155.35 15.842 156.342 15.2269C157.354 14.592 158.515 14.2746 159.824 14.2746ZM176.224 14.3043C177.613 14.3043 178.793 14.6317 179.766 15.2864C180.758 15.9412 181.472 16.8241 181.908 17.9351V8.97719H186.075V31H181.908V27.5478C181.472 28.6588 180.758 29.5517 179.766 30.2262C178.793 30.881 177.613 31.2083 176.224 31.2083C174.835 31.2083 173.585 30.871 172.474 30.1965C171.363 29.5219 170.49 28.5497 169.855 27.2799C169.24 25.9903 168.933 24.4824 168.933 22.7563C168.933 21.0302 169.24 19.5323 169.855 18.2625C170.49 16.9729 171.363 15.9908 172.474 15.3162C173.585 14.6416 174.835 14.3043 176.224 14.3043ZM177.534 17.9649C176.224 17.9649 175.173 18.3914 174.379 19.2446C173.585 20.0977 173.188 21.2683 173.188 22.7563C173.188 24.2444 173.585 25.4149 174.379 26.2681C175.173 27.1014 176.224 27.518 177.534 27.518C178.803 27.518 179.845 27.0914 180.658 26.2383C181.492 25.3653 181.908 24.2047 181.908 22.7563C181.908 21.2881 181.492 20.1275 180.658 19.2743C179.845 18.4014 178.803 17.9649 177.534 17.9649ZM78.6444 56H76.3011L66.8763 41.6567V56H64.533V37.8456H66.8763L76.3011 52.2146V37.8456H78.6444V56ZM95.4169 48.146C95.4169 48.6438 95.3826 49.073 95.3139 49.4335H84.0093C84.0608 51.0472 84.5157 52.2575 85.3741 53.0644C86.2496 53.8713 87.314 54.2747 88.5672 54.2747C89.7002 54.2747 90.6444 53.9914 91.3998 53.4249C92.1723 52.8412 92.6444 52.0687 92.8161 51.1073H95.3139C95.1423 52.0859 94.756 52.9614 94.1551 53.7339C93.5715 54.5064 92.8075 55.1073 91.8633 55.5365C90.9191 55.9657 89.8547 56.1803 88.6702 56.1803C87.314 56.1803 86.1123 55.8884 85.0651 55.3047C84.0179 54.721 83.1938 53.8884 82.593 52.8069C82.0093 51.7082 81.7175 50.4206 81.7175 48.9443C81.7175 47.4679 82.0093 46.1803 82.593 45.0816C83.1938 43.9829 84.0179 43.1417 85.0651 42.558C86.1123 41.9743 87.314 41.6825 88.6702 41.6825C90.0436 41.6825 91.2367 41.9743 92.2496 42.558C93.2796 43.1417 94.0607 43.9228 94.5929 44.9014C95.1423 45.8799 95.4169 46.9614 95.4169 48.146ZM93.0479 48.3005C93.0994 47.2533 92.9277 46.3777 92.5328 45.6739C92.138 44.97 91.5972 44.4464 90.9105 44.1031C90.2238 43.7597 89.4771 43.5881 88.6702 43.5881C87.3827 43.5881 86.3011 43.9915 85.4256 44.7984C84.5501 45.5881 84.078 46.7554 84.0093 48.3005H93.0479ZM105.229 53.9399V56H103.478C102.036 56 100.954 55.6567 100.233 54.97C99.5291 54.2833 99.1772 53.1331 99.1772 51.5193V43.8971H97.0656V41.8628H99.1772V38.3349H101.546V41.8628H105.203V43.8971H101.546V51.5708C101.546 52.4807 101.709 53.1073 102.036 53.4507C102.379 53.7768 102.963 53.9399 103.787 53.9399H105.229ZM127.504 41.8628L123.436 56H120.912L117.024 44.4893L113.11 56H110.56L106.543 41.8628H108.912L111.925 53.7597L115.839 41.8628H118.286L122.225 53.7339L125.264 41.8628H127.504ZM136.102 41.6825C137.458 41.6825 138.668 41.9743 139.733 42.558C140.814 43.1417 141.655 43.9829 142.256 45.0816C142.874 46.1803 143.183 47.4679 143.183 48.9443C143.183 50.4206 142.874 51.7082 142.256 52.8069C141.655 53.8884 140.814 54.721 139.733 55.3047C138.668 55.8884 137.458 56.1803 136.102 56.1803C134.746 56.1803 133.527 55.8884 132.445 55.3047C131.381 54.721 130.54 53.8884 129.922 52.8069C129.304 51.7082 128.995 50.4206 128.995 48.9443C128.995 47.4679 129.304 46.1803 129.922 45.0816C130.54 43.9829 131.381 43.1417 132.445 42.558C133.527 41.9743 134.746 41.6825 136.102 41.6825ZM136.102 43.7426C135.261 43.7426 134.479 43.9314 133.758 44.3091C133.055 44.6868 132.479 45.2705 132.033 46.0602C131.604 46.8327 131.389 47.794 131.389 48.9443C131.389 50.0773 131.604 51.0387 132.033 51.8284C132.479 52.6009 133.055 53.176 133.758 53.5537C134.479 53.9313 135.261 54.1202 136.102 54.1202C136.943 54.1202 137.715 53.9313 138.419 53.5537C139.14 53.176 139.715 52.6009 140.145 51.8284C140.591 51.0387 140.814 50.0773 140.814 48.9443C140.814 47.794 140.591 46.8327 140.145 46.0602C139.715 45.2705 139.14 44.6868 138.419 44.3091C137.715 43.9314 136.943 43.7426 136.102 43.7426ZM148.58 44.7211C149.044 43.7426 149.722 42.9872 150.614 42.455C151.507 41.9057 152.571 41.631 153.807 41.631V44.1803H153.086C151.765 44.1803 150.683 44.5237 149.842 45.2104C149.001 45.8799 148.58 46.9958 148.58 48.558V56H146.237V41.8628H148.58V44.7211ZM163.871 56L158.463 49.6395V56H156.12V36.9443H158.463V48.0172L163.793 41.8628H166.652L160.317 48.8928L166.806 56H163.871Z" fill="black"/>
<defs>
<clipPath id="clip0_49_144">
<rect width="54.4932" height="68" fill="white"/>
</clipPath>
</defs>
</svg>
