<svg width="44" height="44" viewBox="0 0 44 44" fill="none" xmlns="http://www.w3.org/2000/svg">
<path d="M39.8018 20.717L35.6768 16.592C35.334 16.237 34.8642 16.0328 34.3709 16.0242C33.8775 16.0156 33.4009 16.2034 33.046 16.5462C32.691 16.8889 32.4868 17.3587 32.4782 17.8521C32.4696 18.3455 32.6573 18.822 33.0001 19.177L33.9901 20.167H18.6268C18.1406 20.167 17.6742 20.3601 17.3304 20.704C16.9866 21.0478 16.7935 21.5141 16.7935 22.0003C16.7935 22.4866 16.9866 22.9529 17.3304 23.2967C17.6742 23.6405 18.1406 23.8337 18.6268 23.8337H34.1001L33.1101 24.8237C32.9182 24.988 32.7623 25.1903 32.6523 25.4177C32.5423 25.6452 32.4804 25.8929 32.4707 26.1454C32.4609 26.3979 32.5035 26.6497 32.5956 26.8849C32.6878 27.1202 32.8276 27.3338 33.0063 27.5125C33.1849 27.6912 33.3986 27.831 33.6339 27.9232C33.8691 28.0153 34.1209 28.0579 34.3734 28.0481C34.6259 28.0384 34.8736 27.9765 35.1011 27.8665C35.3285 27.7564 35.5308 27.6006 35.6951 27.4087L39.7835 23.3203C39.9565 23.1511 40.0943 22.9493 40.189 22.7265C40.2836 22.5038 40.3332 22.2645 40.3349 22.0225C40.3366 21.7805 40.2904 21.5405 40.1989 21.3164C40.1074 21.0924 39.9724 20.8886 39.8018 20.717Z" fill="#FE740E"/>
<path d="M14.9598 22.0003C14.9598 21.0279 15.3461 20.0952 16.0338 19.4076C16.7214 18.72 17.654 18.3337 18.6265 18.3337H30.1032V11.0003C30.1032 9.0554 29.3306 7.19014 27.9553 5.81488C26.58 4.43961 24.7148 3.66699 22.7698 3.66699H10.9998C9.05492 3.66699 7.18965 4.43961 5.81439 5.81488C4.43912 7.19014 3.6665 9.0554 3.6665 11.0003V33.0003C3.6665 34.9452 4.43912 36.8105 5.81439 38.1858C7.18965 39.561 9.05492 40.3337 10.9998 40.3337H22.7698C23.7329 40.3337 24.6865 40.144 25.5762 39.7754C26.4659 39.4069 27.2743 38.8667 27.9553 38.1858C28.6363 37.5048 29.1764 36.6964 29.545 35.8067C29.9135 34.9169 30.1032 33.9634 30.1032 33.0003V25.667H18.6265C17.654 25.667 16.7214 25.2807 16.0338 24.5931C15.3461 23.9054 14.9598 22.9728 14.9598 22.0003Z" fill="#FE740E"/>
</svg>
