<svg width="100" height="108" viewBox="0 0 100 108" fill="none" xmlns="http://www.w3.org/2000/svg">
<path d="M61.6307 11.4861C57.0034 10.5516 52.3228 11.1997 48.0625 13.3312C43.3796 15.6717 40.1108 19.1688 38.0497 24.0378C35.1676 30.8449 36.1356 38.7199 40.5995 44.7106C42.7921 47.6642 45.2142 49.6461 48.4831 51.156C54.5473 53.9292 60.5925 53.9278 66.5006 51.1269C71.1904 48.9164 74.3136 45.7664 76.504 41.0905C79.45 34.8531 79.2148 27.9573 75.8972 21.9687C73.7425 18.1187 71.3495 15.7106 67.5668 13.666C65.7417 12.6863 63.5015 11.8454 61.6307 11.4861Z" fill="url(#paint0_linear_155_576)"/>
<path d="M32.5341 45.7007C24.9996 43.8078 18.0531 47.1559 12.3408 55.4727C8.53987 61.0138 5.44045 68.2144 4.95637 72.6066C4.59039 76.1318 6.06778 80.3886 8.58681 83.0979C9.72337 84.3164 11.5167 85.6304 13.1306 86.4416C14.0782 86.9352 21.6389 89.7481 36.138 95.0361L57.7342 102.912L59.2393 103.028C64.8158 103.51 69.5302 101.381 72.5533 97.0656C74.1243 94.8204 76.2239 88.8548 77.1742 83.8873C79.3191 72.8404 77.3492 65.0163 71.3137 60.5787C69.9384 59.5638 67.3027 58.2136 66.4255 58.0736C65.5864 57.9293 64.2833 58.1062 61.2294 58.7872C57.9737 59.5216 57.534 59.5786 55.2897 59.592C52.6992 59.6057 50.6866 59.2854 48.4887 58.4782C46.2426 57.6534 44.6277 56.6963 42.6441 55.0575C40.7771 53.4979 40.6985 53.4144 38.1129 50.0434C36.7605 48.2723 35.7101 47.0672 35.2497 46.7343C34.4337 46.1798 34.4337 46.1798 32.5341 45.7007Z" fill="url(#paint1_linear_155_576)"/>
<defs>
<linearGradient id="paint0_linear_155_576" x1="50.22" y1="51.8747" x2="43.8571" y2="20.1204" gradientUnits="userSpaceOnUse">
<stop stop-color="#012C67"/>
<stop offset="1" stop-color="#0052CB"/>
</linearGradient>
<linearGradient id="paint1_linear_155_576" x1="35.0896" y1="94.6642" x2="34.6577" y2="56.4973" gradientUnits="userSpaceOnUse">
<stop stop-color="#012C67"/>
<stop offset="1" stop-color="#0052CB"/>
</linearGradient>
</defs>
</svg>
