<svg width="31" height="37" viewBox="0 0 31 37" fill="none" xmlns="http://www.w3.org/2000/svg">
<path d="M13.5568 0.0930634C11.623 0.390577 9.89456 1.31145 8.54158 2.74944C7.05401 4.3291 6.28189 6.15668 6.17563 8.34554C6.02688 11.4057 7.52861 14.3312 10.1212 16.0242C11.3963 16.8601 12.6218 17.2851 14.1093 17.4055C16.8649 17.6181 19.2167 16.7539 21.1151 14.82C22.6239 13.2899 23.3889 11.6182 23.5731 9.48601C23.8281 6.63837 22.7514 3.98908 20.6051 2.13316C19.2167 0.943104 17.9416 0.348076 16.1778 0.0930634C15.3277 -0.027359 14.336 -0.0344429 13.5568 0.0930634Z" fill="#FE740E"/>
<path d="M7.12511 17.5618C3.92329 17.9019 1.69902 20.197 0.664801 24.2488C-0.0223144 26.9477 -0.199406 30.192 0.239781 31.97C0.601048 33.3938 1.78402 34.8389 3.15117 35.5331C3.76745 35.8448 4.65291 36.0998 5.39669 36.1848C5.83588 36.2415 9.17937 36.2556 15.5759 36.2415L25.1035 36.2202L25.7056 36.0502C27.944 35.441 29.4741 33.9393 30.0337 31.8283C30.3241 30.7304 30.2887 28.1094 29.9487 26.041C29.2049 21.4366 27.3206 18.674 24.3384 17.8098C23.6584 17.6114 22.44 17.4627 22.0787 17.5335C21.7316 17.5973 21.2499 17.8523 20.1591 18.5535C18.9973 19.3044 18.8344 19.3894 17.9631 19.7153C16.9572 20.0907 16.1284 20.2536 15.158 20.2536C14.1663 20.2536 13.4012 20.112 12.3954 19.7578C11.4461 19.4178 11.4036 19.3965 9.91607 18.4544C9.13687 17.9585 8.55601 17.6398 8.32933 17.576C7.93264 17.4768 7.93264 17.4768 7.12511 17.5618Z" fill="#FE740E"/>
</svg>
