<svg width="37" height="36" viewBox="0 0 37 36" fill="none" xmlns="http://www.w3.org/2000/svg">
<path d="M4.95304 0.104794C4.64652 0.209287 4.31911 0.501865 4.16586 0.794444C4.10316 0.912868 3.45531 3.11418 2.7169 5.69166L1.37939 10.3799H5.78897H10.1986L10.2682 10.0107C10.31 9.81562 10.7767 7.47499 11.3131 4.82089L12.2745 0.000301361H8.74959C5.94223 0.00726795 5.16899 0.0281658 4.95304 0.104794Z" fill="#FE740E"/>
<path d="M14.2876 5.09953C13.7303 7.9069 13.2705 10.2475 13.2705 10.2893C13.2705 10.359 14.4339 10.3799 18.8434 10.3799C23.253 10.3799 24.4164 10.359 24.4164 10.2893C24.4164 10.2475 23.9566 7.9069 23.3993 5.09953L22.3753 0.000301361H18.8434H15.3116L14.2876 5.09953Z" fill="#FE740E"/>
<path d="M26.3739 4.82089C26.9103 7.47499 27.3771 9.81562 27.4189 10.0107L27.4885 10.3799H31.8981H36.3077L34.9702 5.69166C34.2318 3.11418 33.5769 0.905903 33.5212 0.787477C33.368 0.487933 32.9639 0.160523 32.6574 0.0769291C32.4902 0.0281658 31.1248 0.000301361 28.9026 0.000301361H25.4126L26.3739 4.82089Z" fill="#FE740E"/>
<path d="M1.02396 12.9714C1.05182 13.87 1.07969 14.0999 1.21204 14.4413C1.51159 15.2145 2.20821 15.8833 3.00931 16.1828C3.39245 16.3221 3.54571 16.3361 5.9142 16.3569C9.18133 16.3848 9.61324 16.3082 10.4213 15.5558C10.895 15.117 11.104 14.7756 11.2921 14.1487L11.4384 13.6401L11.4802 13.9258C11.5359 14.3855 11.9051 15.0821 12.2952 15.4653C12.6992 15.8763 13.3471 16.2037 13.9392 16.3012C14.4826 16.3918 23.2042 16.3918 23.7476 16.3012C24.3397 16.2037 24.9876 15.8763 25.3916 15.4653C25.7817 15.0821 26.1509 14.3855 26.2066 13.9258L26.2484 13.6401L26.3947 14.1487C26.5828 14.7756 26.7918 15.117 27.2655 15.5558C28.0736 16.3082 28.5055 16.3848 31.7726 16.3569C34.1411 16.3361 34.2943 16.3221 34.6775 16.1828C35.4786 15.8833 36.1752 15.2145 36.4748 14.4413C36.6071 14.0999 36.635 13.87 36.6628 12.9714L36.6907 11.9125H18.8434H0.996094L1.02396 12.9714Z" fill="#FE740E"/>
<path d="M11.2501 16.8235C11.0899 17.0186 10.3793 17.4017 9.82204 17.6037L9.26475 17.7988L6.45042 17.8197C4.10979 17.8406 3.54553 17.8267 3.0997 17.7361C2.80712 17.6734 2.5424 17.6246 2.51454 17.6246C2.49364 17.6246 2.47971 21.4421 2.48668 26.1094L2.50757 34.6012L2.71656 34.9355C2.86981 35.1863 3.03004 35.3326 3.30172 35.4719L3.67092 35.667H5.301H6.93109L6.94502 28.7844L6.96592 21.9088L7.11917 21.6302C7.30726 21.2819 7.52321 21.0729 7.85062 20.9336C8.24073 20.7733 16.0707 20.7733 16.4608 20.9336C16.7882 21.0729 17.0042 21.2819 17.1922 21.6302L17.3455 21.9088L17.3664 28.7844L17.3803 35.667H25.6979H34.0155L34.3847 35.4719C34.6564 35.3326 34.8166 35.1863 34.9699 34.9355L35.1789 34.6012L35.1998 26.1094C35.2067 21.4421 35.1928 17.6246 35.1719 17.6246C35.144 17.6246 34.8793 17.6734 34.5868 17.7361C34.1409 17.8267 33.5767 17.8406 31.236 17.8197L28.4217 17.7988L27.8644 17.6037C27.3071 17.4017 26.5966 17.0186 26.4363 16.8235C26.3179 16.6772 26.2831 16.6912 25.9766 16.935C25.5795 17.2485 24.7923 17.6037 24.2141 17.7291C23.4757 17.8824 14.2247 17.8824 13.4862 17.7291C12.8872 17.6037 12.2045 17.3042 11.7656 16.9698C11.3964 16.6842 11.3685 16.6772 11.2501 16.8235ZM29.8358 20.9336C30.1632 21.0729 30.3792 21.2819 30.5673 21.6302C30.7136 21.9019 30.7205 21.9785 30.7205 24.5211V27.1334L30.5464 27.4469C30.4488 27.6141 30.2329 27.851 30.0727 27.9694L29.7662 28.1784L25.684 28.1993C22.9045 28.2132 21.5113 28.1993 21.3371 28.1435C20.9958 28.046 20.6823 27.7743 20.4942 27.4191C20.3409 27.1404 20.3409 27.0847 20.3409 24.5211C20.3409 21.9785 20.3479 21.9019 20.4942 21.6302C20.6753 21.2888 20.8913 21.0799 21.2117 20.9405C21.5809 20.7803 29.4527 20.7803 29.8358 20.9336Z" fill="#FE740E"/>
</svg>
