<svg width="291" height="98" viewBox="0 0 291 98" fill="none" xmlns="http://www.w3.org/2000/svg">
<path d="M23.338 52.3457C25.6166 52.8086 27.4502 53.8945 28.8387 55.6035C30.2628 57.3124 30.9749 59.3062 30.9749 61.5848C30.9749 64.7179 29.9246 67.2101 27.824 69.0615C25.7234 70.8773 22.6793 71.7852 18.6917 71.7852H3.68494V34.0812H18.4247C22.1987 34.0812 25.0825 34.9357 27.0763 36.6447C29.1057 38.318 30.1204 40.6323 30.1204 43.5873C30.1204 45.9728 29.4973 47.9131 28.2512 49.4085C27.0051 50.8682 25.3674 51.8473 23.338 52.3457ZM9.77311 50.3164H17.3032C19.4394 50.3164 21.0594 49.8179 22.1631 48.821C23.3024 47.8241 23.872 46.4356 23.872 44.6554C23.872 42.9109 23.3024 41.5401 22.1631 40.5432C21.0594 39.5464 19.3682 39.0479 17.0896 39.0479H9.77311V50.3164ZM17.4634 66.7651C19.7776 66.7651 21.5578 66.2488 22.8039 65.2163C24.0856 64.1482 24.7265 62.6707 24.7265 60.7837C24.7265 58.8968 24.0856 57.4192 22.8039 56.3511C21.5222 55.283 19.7242 54.749 17.41 54.749H9.77311V66.7651H17.4634ZM41.184 48.1268C42.1809 46.2042 43.605 44.691 45.4564 43.5873C47.3078 42.448 49.444 41.8784 51.865 41.8784V48.5006H50.0492C47.379 48.5006 45.225 49.1593 43.5872 50.4766C41.9851 51.7583 41.184 53.8945 41.184 56.8852V71.7852H35.0958V42.359H41.184V48.1268ZM53.9699 33.8142C53.9699 32.7817 54.3259 31.9272 55.038 31.2508C55.7501 30.5743 56.6935 30.2361 57.8685 30.2361C59.0434 30.2361 59.9869 30.5743 60.6989 31.2508C61.4466 31.9272 61.8204 32.7817 61.8204 33.8142C61.8204 34.8467 61.4466 35.6834 60.6989 36.3243C59.9869 36.9651 59.0434 37.2855 57.8685 37.2855C56.6935 37.2855 55.7501 36.9651 55.038 36.3243C54.3259 35.6834 53.9699 34.8467 53.9699 33.8142ZM60.9125 42.359V71.7852H54.8244V42.359H60.9125ZM72.7659 32.2655V71.7852H66.6778V32.2655H72.7659ZM84.6193 32.2655V71.7852H78.5312V32.2655H84.6193Z" fill="black"/>
<path d="M105.091 34.0812L115.932 65.2697L126.827 34.0812H133.449L119.831 71.7852H112.034L98.4687 34.0812H105.091ZM160.607 34.0812V38.9945H150.086V71.7852H143.944V38.9945H133.477V34.0812H160.607ZM169.368 34.0812V56.4579C169.368 59.8046 170.098 62.2969 171.558 63.9346C173.053 65.5724 175.136 66.3913 177.806 66.3913C180.441 66.3913 182.488 65.5724 183.948 63.9346C185.443 62.2969 186.191 59.8046 186.191 56.4579V34.0812H192.279V56.4579C192.279 61.6204 190.944 65.5368 188.274 68.207C185.604 70.8417 182.079 72.159 177.7 72.159C173.356 72.159 169.867 70.8417 167.232 68.207C164.598 65.5368 163.28 61.6204 163.28 56.4579V34.0812H169.368Z" fill="#FE740E"/>
<path d="M234.751 11.1478C234.097 11.7549 233.608 12.8513 233.555 13.8535C233.513 14.7205 233.57 14.9427 234.446 17.2367C235.513 20.0423 235.585 19.6537 233.793 20.5571C232.382 21.2736 229.663 23.0412 228.102 24.276C219.412 31.1341 214.066 41.5788 213.577 52.5967C213.416 56.2899 213.913 61.1238 214.774 63.947C215.022 64.7624 215.129 64.9479 215.603 65.3123C216.571 66.0495 217.851 65.9414 218.67 65.055C218.909 64.7953 219.239 63.9922 219.52 63.0287C221.722 55.3239 226.967 48.5976 234.198 44.2406C235.878 43.2193 240.553 41.3161 242.48 40.8654L243.748 40.5659L244.896 43.2081C246.183 46.1538 246.52 46.6227 247.816 47.1619C249.217 47.7571 250.578 47.4854 251.838 46.3557C252.484 45.7682 252.786 45.1396 256.589 36.2168C260.775 26.4202 261.048 25.6397 260.885 23.9402C260.786 22.8851 260.046 21.0101 259.427 20.2464C258.215 18.7416 258.031 18.6521 248.009 14.3939C237.638 9.99886 237.585 9.98777 235.951 10.5164C235.518 10.6585 234.978 10.9416 234.751 11.1478Z" fill="url(#paint0_linear_162_1056)"/>
<path d="M271.425 32.2384C271.257 32.4698 270.883 33.4054 270.613 34.3153C270.025 36.3014 268.452 39.8949 267.447 41.5756C264.652 46.234 260.808 50.0738 256.021 52.954C254.341 53.9753 249.666 55.8784 247.74 56.3291L246.471 56.6286L245.366 54.1327C244.031 51.1084 243.587 50.5356 242.203 49.9826C240.755 49.3904 239.287 49.8031 238.1 51.1156C237.458 51.8325 236.921 53.0135 233.434 61.2204C230.545 67.9929 229.445 70.7743 229.349 71.467C229.024 73.9843 229.961 76.4666 231.866 78.1495C232.247 78.486 235.463 79.934 242.004 82.7366C252.288 87.1178 252.548 87.193 254.162 86.7376C255.798 86.2569 256.762 84.6749 256.598 82.7305C256.528 81.9089 256.351 81.3099 255.671 79.6233C254.701 77.2198 254.62 77.5466 256.427 76.6375C257.787 75.9577 260.385 74.2552 261.966 73.0288C273.537 63.9945 278.944 48.883 275.739 34.5836C275.317 32.7273 275.025 32.1259 274.311 31.6947C273.423 31.1542 272.042 31.4175 271.425 32.2384Z" fill="url(#paint1_linear_162_1056)"/>
<defs>
<linearGradient id="paint0_linear_162_1056" x1="257.91" y1="69.632" x2="230.493" y2="12.3769" gradientUnits="userSpaceOnUse">
<stop stop-color="#0EC4FE"/>
<stop offset="1" stop-color="#0E26FE"/>
</linearGradient>
<linearGradient id="paint1_linear_162_1056" x1="279.371" y1="96.7588" x2="251.938" y2="39.4767" gradientUnits="userSpaceOnUse">
<stop stop-color="#0EC4FE"/>
<stop offset="1" stop-color="#0E26FE"/>
</linearGradient>
</defs>
</svg>
